0
SECTION
2
HEADER
9
$INSUNITS
70
4
9
$ACADVER
1
AC1014
9
$HANDSEED
5
FFFF
0
ENDSEC
0
SECTION
2
TABLES
0
TABLE
2
VPORT
5
8
100
AcDbSymbolTable
0
ENDTAB
0
TABLE
2
LTYPE
5
5
100
AcDbSymbolTable
0
LTYPE
5
14
100
AcDbSymbolTableRecord
100
AcDbLinetypeTableRecord
2
BYBLOCK
70
0
0
LTYPE
5
15
100
AcDbSymbolTableRecord
100
AcDbLinetypeTableRecord
2
BYLAYER
70
0
0
LTYPE
5
16
100
AcDbSymbolTableRecord
100
AcDbLinetypeTableRecord
2
DASHED
70
0
3
Dashed __ __ __ __ __ __ __ __ __ __ __ __ __ _
72
65
73
2
40
0.75
49
0.5
74
0
49
-0.25
74
0
0
ENDTAB
0
TABLE
2
LAYER
5
2
100
AcDbSymbolTable
70
2
0
LAYER
5
50
100
AcDbSymbolTableRecord
100
AcDbLayerTableRecord
2
0
70
0
62
7
6
CONTINUOUS
0
ENDTAB
0
TABLE
2
STYLE
5
3
100
AcDbSymbolTable
70
1
0
STYLE
5
11
100
AcDbSymbolTableRecord
100
AcDbTextStyleTableRecord
2
STANDARD
70
0
0
ENDTAB
0
TABLE
2
VIEW
5
6
100
AcDbSymbolTable
70
0
0
ENDTAB
0
TABLE
2
UCS
5
7
100
AcDbSymbolTable
70
0
0
ENDTAB
0
TABLE
2
APPID
5
9
100
AcDbSymbolTable
70
2
0
APPID
5
12
100
AcDbSymbolTableRecord
100
AcDbRegAppTableRecord
2
ACAD
70
0
0
ENDTAB
0
TABLE
2
DIMSTYLE
5
A
100
AcDbSymbolTable
70
1
0
ENDTAB
0
TABLE
2
BLOCK_RECORD
5
1
100
AcDbSymbolTable
70
1
0
BLOCK_RECORD
5
1F
100
AcDbSymbolTableRecord
100
AcDbBlockTableRecord
2
*MODEL_SPACE
0
BLOCK_RECORD
5
1B
100
AcDbSymbolTableRecord
100
AcDbBlockTableRecord
2
*PAPER_SPACE
0
ENDTAB
0
ENDSEC
0
SECTION
2
BLOCKS
0
BLOCK
5
20
100
AcDbEntity
100
AcDbBlockBegin
2
*MODEL_SPACE
0
ENDBLK
5
21
100
AcDbEntity
100
AcDbBlockEnd
0
BLOCK
5
1C
100
AcDbEntity
100
AcDbBlockBegin
2
*PAPER_SPACE
0
ENDBLK
5
1D
100
AcDbEntity
100
AcDbBlockEnd
0
ENDSEC
0
SECTION
2
ENTITIES
0
CIRCLE
5
100
100
AcDbEntity
8
0
100
AcDbCircle
10
110.00000000000466
20
95.979281551742162
30
0
40
1.5000000000000036
210
-1.0482132874128286e-64
220
-7.5964541966078356e-65
230
1
0
CIRCLE
5
101
100
AcDbEntity
8
0
100
AcDbCircle
10
90.000000000004661
20
85.979281551742176
30
0
40
1.5000000000000036
210
-1.0482132874128286e-64
220
-7.5964541966078356e-65
230
1
0
CIRCLE
5
102
100
AcDbEntity
8
0
100
AcDbCircle
10
90.000000000004661
20
75.979281551742176
30
0
40
1.5000000000000036
210
-1.0482132874128286e-64
220
-7.5964541966078356e-65
230
1
0
CIRCLE
5
103
100
AcDbEntity
8
0
100
AcDbCircle
10
130.00000000000466
20
75.979281551742176
30
0
40
1.5000000000000036
210
-1.0482132874128286e-64
220
-7.5964541966078356e-65
230
1
0
CIRCLE
5
104
100
AcDbEntity
8
0
100
AcDbCircle
10
100.00000000000466
20
65.979281551742176
30
0
40
1.5000000000000036
210
-1.0482132874128286e-64
220
-7.5964541966078356e-65
230
1
0
CIRCLE
5
105
100
AcDbEntity
8
0
100
AcDbCircle
10
70.000000000004661
20
55.97928155174219
30
0
40
1.5000000000000036
210
-1.0482132874128286e-64
220
-7.5964541966078356e-65
230
1
0
CIRCLE
5
106
100
AcDbEntity
8
0
100
AcDbCircle
10
110.00000000000466
20
55.979281551742169
30
0
40
1.5000000000000036
210
-1.0482132874128286e-64
220
-7.5964541966078356e-65
230
1
0
CIRCLE
5
107
100
AcDbEntity
8
0
100
AcDbCircle
10
60.000000000004654
20
55.97928155174219
30
0
40
1.5000000000000036
210
-1.0482132874128286e-64
220
-7.5964541966078356e-65
230
1
0
CIRCLE
5
108
100
AcDbEntity
8
0
100
AcDbCircle
10
90.000000000004661
20
45.979281551742176
30
0
40
1.5000000000000036
210
-1.0482132874128286e-64
220
-7.5964541966078356e-65
230
1
0
CIRCLE
5
109
100
AcDbEntity
8
0
100
AcDbCircle
10
130.00000000000466
20
45.979281551742162
30
0
40
1.5000000000000036
210
-1.0482132874128286e-64
220
-7.5964541966078356e-65
230
1
0
CIRCLE
5
110
100
AcDbEntity
8
0
100
AcDbCircle
10
110.00000000000463
20
35.979281551742169
30
0
40
1.5000000000000036
210
-1.0482132874128286e-64
220
-7.5964541966078356e-65
230
1
0
CIRCLE
5
111
100
AcDbEntity
8
0
100
AcDbCircle
10
70.000000000004661
20
35.979281551742176
30
0
40
1.5000000000000036
210
-1.0482132874128286e-64
220
-7.5964541966078356e-65
230
1
0
CIRCLE
5
112
100
AcDbEntity
8
0
100
AcDbCircle
10
100.00000000000463
20
25.979281551742169
30
0
40
1.5000000000000036
210
-1.0482132874128286e-64
220
-7.5964541966078356e-65
230
1
0
CIRCLE
5
113
100
AcDbEntity
8
0
100
AcDbCircle
10
120.00000000000463
20
15.979281551742169
30
0
40
1.5000000000000036
210
-1.0482132874128286e-64
220
-7.5964541966078356e-65
230
1
0
CIRCLE
5
114
100
AcDbEntity
8
0
100
AcDbCircle
10
80.000000000004633
20
15.979281551742179
30
0
40
1.5000000000000036
210
-1.0482132874128286e-64
220
-7.5964541966078356e-65
230
1
0
CIRCLE
5
115
100
AcDbEntity
8
0
100
AcDbCircle
10
100.00000000000463
20
5.979281551742174
30
0
40
1.5000000000000036
210
-1.0482132874128286e-64
220
-7.5964541966078356e-65
230
1
0
CIRCLE
5
116
100
AcDbEntity
8
0
100
AcDbCircle
10
90.000000000004633
20
15.979281551742178
30
0
40
1.5000000000000036
210
-1.0482132874128286e-64
220
-7.5964541966078356e-65
230
1
0
CIRCLE
5
117
100
AcDbEntity
8
0
100
AcDbCircle
10
130.00000000000463
20
25.979281551742162
30
0
40
1.5000000000000036
210
-1.0482132874128286e-64
220
-7.5964541966078356e-65
230
1
0
CIRCLE
5
118
100
AcDbEntity
8
0
100
AcDbCircle
10
90.000000000004633
20
25.979281551742179
30
0
40
1.5000000000000036
210
-1.0482132874128286e-64
220
-7.5964541966078356e-65
230
1
0
CIRCLE
5
119
100
AcDbEntity
8
0
100
AcDbCircle
10
80.000000000004633
20
35.979281551742176
30
0
40
1.5000000000000036
210
-1.0482132874128286e-64
220
-7.5964541966078356e-65
230
1
0
CIRCLE
5
120
100
AcDbEntity
8
0
100
AcDbCircle
10
120.00000000000463
20
35.979281551742169
30
0
40
1.5000000000000036
210
-1.0482132874128286e-64
220
-7.5964541966078356e-65
230
1
0
CIRCLE
5
121
100
AcDbEntity
8
0
100
AcDbCircle
10
120.00000000000466
20
45.979281551742169
30
0
40
1.5000000000000036
210
-1.0482132874128286e-64
220
-7.5964541966078356e-65
230
1
0
CIRCLE
5
122
100
AcDbEntity
8
0
100
AcDbCircle
10
80.000000000004661
20
45.979281551742176
30
0
40
1.5000000000000036
210
-1.0482132874128286e-64
220
-7.5964541966078356e-65
230
1
0
CIRCLE
5
123
100
AcDbEntity
8
0
100
AcDbCircle
10
80.000000000004661
20
55.979281551742176
30
0
40
1.5000000000000036
210
-1.0482132874128286e-64
220
-7.5964541966078356e-65
230
1
0
CIRCLE
5
124
100
AcDbEntity
8
0
100
AcDbCircle
10
120.00000000000466
20
55.979281551742169
30
0
40
1.5000000000000036
210
-1.0482132874128286e-64
220
-7.5964541966078356e-65
230
1
0
CIRCLE
5
125
100
AcDbEntity
8
0
100
AcDbCircle
10
70.000000000004661
20
65.97928155174219
30
0
40
1.5000000000000036
210
-1.0482132874128286e-64
220
-7.5964541966078356e-65
230
1
0
CIRCLE
5
126
100
AcDbEntity
8
0
100
AcDbCircle
10
110.00000000000466
20
65.979281551742176
30
0
40
1.5000000000000036
210
-1.0482132874128286e-64
220
-7.5964541966078356e-65
230
1
0
CIRCLE
5
127
100
AcDbEntity
8
0
100
AcDbCircle
10
120.00000000000466
20
75.979281551742176
30
0
40
1.5000000000000036
210
-1.0482132874128286e-64
220
-7.5964541966078356e-65
230
1
0
CIRCLE
5
128
100
AcDbEntity
8
0
100
AcDbCircle
10
80.000000000004661
20
75.979281551742176
30
0
40
1.5000000000000036
210
-1.0482132874128286e-64
220
-7.5964541966078356e-65
230
1
0
CIRCLE
5
129
100
AcDbEntity
8
0
100
AcDbCircle
10
100.00000000000466
20
85.979281551742176
30
0
40
1.5000000000000036
210
-1.0482132874128286e-64
220
-7.5964541966078356e-65
230
1
0
CIRCLE
5
130
100
AcDbEntity
8
0
100
AcDbCircle
10
100.00000000000466
20
95.979281551742162
30
0
40
1.5000000000000036
210
-1.0482132874128286e-64
220
-7.5964541966078356e-65
230
1
0
CIRCLE
5
131
100
AcDbEntity
8
0
100
AcDbCircle
10
120.00000000000466
20
85.979281551742176
30
0
40
1.5000000000000036
210
-1.0482132874128286e-64
220
-7.5964541966078356e-65
230
1
0
CIRCLE
5
132
100
AcDbEntity
8
0
100
AcDbCircle
10
80.000000000004661
20
85.979281551742176
30
0
40
1.5000000000000036
210
-1.0482132874128286e-64
220
-7.5964541966078356e-65
230
1
0
CIRCLE
5
133
100
AcDbEntity
8
0
100
AcDbCircle
10
100.00000000000466
20
75.979281551742176
30
0
40
1.5000000000000036
210
-1.0482132874128286e-64
220
-7.5964541966078356e-65
230
1
0
CIRCLE
5
134
100
AcDbEntity
8
0
100
AcDbCircle
10
130.00000000000466
20
65.979281551742176
30
0
40
1.5000000000000036
210
-1.0482132874128286e-64
220
-7.5964541966078356e-65
230
1
0
CIRCLE
5
135
100
AcDbEntity
8
0
100
AcDbCircle
10
90.000000000004661
20
65.979281551742176
30
0
40
1.5000000000000036
210
-1.0482132874128286e-64
220
-7.5964541966078356e-65
230
1
0
CIRCLE
5
136
100
AcDbEntity
8
0
100
AcDbCircle
10
140.00000000000466
20
55.979281551742162
30
0
40
1.5000000000000036
210
-1.0482132874128286e-64
220
-7.5964541966078356e-65
230
1
0
CIRCLE
5
137
100
AcDbEntity
8
0
100
AcDbCircle
10
100.00000000000466
20
55.979281551742176
30
0
40
1.5000000000000036
210
-1.0482132874128286e-64
220
-7.5964541966078356e-65
230
1
0
CIRCLE
5
138
100
AcDbEntity
8
0
100
AcDbCircle
10
60.000000000004654
20
45.97928155174219
30
0
40
1.5000000000000036
210
-1.0482132874128286e-64
220
-7.5964541966078356e-65
230
1
0
CIRCLE
5
139
100
AcDbEntity
8
0
100
AcDbCircle
10
100.00000000000466
20
45.979281551742169
30
0
40
1.5000000000000036
210
-1.0482132874128286e-64
220
-7.5964541966078356e-65
230
1
0
CIRCLE
5
140
100
AcDbEntity
8
0
100
AcDbCircle
10
140.00000000000466
20
45.979281551742162
30
0
40
1.5000000000000036
210
-1.0482132874128286e-64
220
-7.5964541966078356e-65
230
1
0
CIRCLE
5
141
100
AcDbEntity
8
0
100
AcDbCircle
10
100.00000000000463
20
35.979281551742169
30
0
40
1.5000000000000036
210
-1.0482132874128286e-64
220
-7.5964541966078356e-65
230
1
0
CIRCLE
5
142
100
AcDbEntity
8
0
100
AcDbCircle
10
70.000000000004661
20
25.979281551742179
30
0
40
1.5000000000000036
210
-1.0482132874128286e-64
220
-7.5964541966078356e-65
230
1
0
CIRCLE
5
143
100
AcDbEntity
8
0
100
AcDbCircle
10
110.00000000000463
20
25.979281551742169
30
0
40
1.5000000000000036
210
-1.0482132874128286e-64
220
-7.5964541966078356e-65
230
1
0
CIRCLE
5
144
100
AcDbEntity
8
0
100
AcDbCircle
10
110.00000000000463
20
15.97928155174217
30
0
40
1.5000000000000036
210
-1.0482132874128286e-64
220
-7.5964541966078356e-65
230
1
0
CIRCLE
5
145
100
AcDbEntity
8
0
100
AcDbCircle
10
90.000000000004633
20
5.9792815517421776
30
0
40
1.5000000000000036
210
-1.0482132874128286e-64
220
-7.5964541966078356e-65
230
1
0
CIRCLE
5
146
100
AcDbEntity
8
0
100
AcDbCircle
10
110.00000000000463
20
5.9792815517421705
30
0
40
1.5000000000000036
210
-1.0482132874128286e-64
220
-7.5964541966078356e-65
230
1
0
CIRCLE
5
147
100
AcDbEntity
8
0
100
AcDbCircle
10
100.00000000000463
20
15.979281551742176
30
0
40
1.5000000000000036
210
-1.0482132874128286e-64
220
-7.5964541966078356e-65
230
1
0
CIRCLE
5
148
100
AcDbEntity
8
0
100
AcDbCircle
10
120.00000000000463
20
25.979281551742165
30
0
40
1.5000000000000036
210
-1.0482132874128286e-64
220
-7.5964541966078356e-65
230
1
0
CIRCLE
5
149
100
AcDbEntity
8
0
100
AcDbCircle
10
80.000000000004633
20
25.979281551742179
30
0
40
1.5000000000000036
210
-1.0482132874128286e-64
220
-7.5964541966078356e-65
230
1
0
CIRCLE
5
150
100
AcDbEntity
8
0
100
AcDbCircle
10
90.000000000004633
20
35.979281551742176
30
0
40
1.5000000000000036
210
-1.0482132874128286e-64
220
-7.5964541966078356e-65
230
1
0
CIRCLE
5
151
100
AcDbEntity
8
0
100
AcDbCircle
10
130.00000000000463
20
35.979281551742162
30
0
40
1.5000000000000036
210
-1.0482132874128286e-64
220
-7.5964541966078356e-65
230
1
0
CIRCLE
5
152
100
AcDbEntity
8
0
100
AcDbCircle
10
110.00000000000466
20
45.979281551742169
30
0
40
1.5000000000000036
210
-1.0482132874128286e-64
220
-7.5964541966078356e-65
230
1
0
CIRCLE
5
153
100
AcDbEntity
8
0
100
AcDbCircle
10
70.000000000004661
20
45.979281551742176
30
0
40
1.5000000000000036
210
-1.0482132874128286e-64
220
-7.5964541966078356e-65
230
1
0
CIRCLE
5
154
100
AcDbEntity
8
0
100
AcDbCircle
10
90.000000000004661
20
55.979281551742176
30
0
40
1.5000000000000036
210
-1.0482132874128286e-64
220
-7.5964541966078356e-65
230
1
0
CIRCLE
5
155
100
AcDbEntity
8
0
100
AcDbCircle
10
130.00000000000466
20
55.979281551742169
30
0
40
1.5000000000000036
210
-1.0482132874128286e-64
220
-7.5964541966078356e-65
230
1
0
CIRCLE
5
156
100
AcDbEntity
8
0
100
AcDbCircle
10
80.000000000004661
20
65.979281551742176
30
0
40
1.5000000000000036
210
-1.0482132874128286e-64
220
-7.5964541966078356e-65
230
1
0
CIRCLE
5
157
100
AcDbEntity
8
0
100
AcDbCircle
10
120.00000000000466
20
65.979281551742176
30
0
40
1.5000000000000036
210
-1.0482132874128286e-64
220
-7.5964541966078356e-65
230
1
0
CIRCLE
5
158
100
AcDbEntity
8
0
100
AcDbCircle
10
110.00000000000466
20
75.979281551742176
30
0
40
1.5000000000000036
210
-1.0482132874128286e-64
220
-7.5964541966078356e-65
230
1
0
CIRCLE
5
159
100
AcDbEntity
8
0
100
AcDbCircle
10
70.000000000004661
20
75.97928155174219
30
0
40
1.5000000000000036
210
-1.0482132874128286e-64
220
-7.5964541966078356e-65
230
1
0
CIRCLE
5
160
100
AcDbEntity
8
0
100
AcDbCircle
10
110.00000000000466
20
85.979281551742176
30
0
40
1.5000000000000036
210
-1.0482132874128286e-64
220
-7.5964541966078356e-65
230
1
0
CIRCLE
5
161
100
AcDbEntity
8
0
100
AcDbCircle
10
90.000000000004661
20
95.979281551742162
30
0
40
1.5000000000000036
210
-1.0482132874128286e-64
220
-7.5964541966078356e-65
230
1
0
LWPOLYLINE
5
162
100
AcDbEntity
8
0
100
AcDbPolyline
90
92
70
1
43
0.0
10
101.49999999998946
20
-14.420718448256984
10
101.49999999998883
20
-17.020718448235542
10
125
20
-17.020718448235538
10
125
20
-21.020718448235538
10
218.7311555509163
20
-21.020718448235538
10
218.7311555509163
20
-17.020718448235538
10
233.7311555509163
20
-17.020718448235538
10
233.7311555509163
20
-21.020718448235538
10
241.46231110184419
20
-21.020718448242238
10
241.46231110184419
20
2.4792815517577793
10
245.46231110184419
20
2.4792815517577798
10
245.46231110184419
20
27.479281551757786
10
241.46231110184419
20
27.479281551757786
10
241.46231110183265
20
49.479281551757609
10
238.86231110182246
20
49.479281551757623
10
238.86231110182246
20
48.229281551756614
10
236.46231110182245
20
48.229281551756607
10
236.46231110182245
20
49.479281551757623
10
233.46231110182245
20
49.479281551757623
10
233.46231110182245
20
52.47928155175763
10
236.46231110182245
20
52.47928155175763
10
236.46231110182245
20
53.729281551758618
10
238.86231110182246
20
53.729281551758618
10
238.86231110182246
20
52.47928155175763
10
241.46231110183265
20
52.479281551757623
10
241.46231110184416
20
74.47928155175785
10
245.46231110184414
20
74.47928155175785
10
245.46231110184414
20
99.479281551757794
10
241.46231110184416
20
99.479281551757794
10
241.46231110184414
20
122.97928155175781
10
233.7311555509163
20
122.97928155180185
10
233.7311555509163
20
118.97928155180183
10
218.7311555509163
20
118.97928155179544
10
218.7311555509163
20
122.97928155179545
10
125
20
122.97928155173416
10
125
20
118.97928155173416
10
101.50000000000466
20
118.97928155173646
10
101.50000000000466
20
116.37928155173809
10
102.75000000000466
20
116.37928155173809
10
102.75000000000466
20
113.97928155173808
10
101.50000000000466
20
113.97928155173808
10
101.50000000000466
20
110.97928155173807
10
98.500000000004647
20
110.97928155173807
10
98.500000000004647
20
113.97928155173808
10
97.250000000004647
20
113.97928155173808
10
97.250000000004647
20
116.37928155173809
10
98.500000000004647
20
116.37928155173809
10
98.500000000004661
20
118.97928155180685
10
75
20
118.97928155175548
10
75
20
122.97928155175548
10
-18.731155550916299
20
122.97928155179545
10
-18.731155550916299
20
118.97928155179544
10
-33.731155550916299
20
118.97928155180183
10
-33.731155550916299
20
122.97928155180185
10
-41.462311101844129
20
122.97928155175781
10
-41.462311101844165
20
99.479281551757794
10
-45.462311101844151
20
99.479281551757794
10
-45.462311101844151
20
74.47928155175785
10
-41.462311101844165
20
74.47928155175785
10
-41.462311101832654
20
52.479281551757623
10
-38.862311101822442
20
52.47928155175763
10
-38.862311101822442
20
53.729281551758618
10
-36.462311101822458
20
53.729281551758618
10
-36.462311101822458
20
52.47928155175763
10
-33.462311101822451
20
52.47928155175763
10
-33.462311101822451
20
49.479281551757623
10
-36.462311101822458
20
49.479281551757623
10
-36.462311101822458
20
48.229281551756607
10
-38.862311101822442
20
48.229281551756614
10
-38.862311101822442
20
49.479281551757623
10
-41.462311101832654
20
49.479281551757609
10
-41.4623111018442
20
27.479281551757786
10
-45.462311101844186
20
27.479281551757786
10
-45.462311101844186
20
2.4792815517577793
10
-41.4623111018442
20
2.4792815517577793
10
-41.4623111018442
20
-21.020718448242238
10
-33.731155550916299
20
-21.020718448235538
10
-33.731155550916299
20
-17.020718448235538
10
-18.731155550916299
20
-17.020718448235538
10
-18.731155550916299
20
-21.020718448235538
10
75
20
-21.020718448235538
10
75
20
-17.020718448235538
10
98.499999999988844
20
-17.02071844825544
10
98.499999999989441
20
-14.420718448256283
10
97.249999999989441
20
-14.420718448255993
10
97.249999999989996
20
-12.020718448255991
10
98.499999999989996
20
-12.020718448256281
10
98.499999999990692
20
-9.0207184482562681
10
101.49999999999069
20
-9.0207184482569787
10
101.49999999999
20
-12.020718448256982
10
102.74999999999
20
-12.02071844825727
10
102.74999999998946
20
-14.420718448257272
0
LWPOLYLINE
5
163
100
AcDbEntity
8
0
100
AcDbPolyline
90
8
70
1
43
0.0
10
151.6000000000233
20
-8.8507184482673296
10
151.60000000002464
20
-14.550718448267371
42
-0.41421356237310025
10
150.10000000002495
20
-16.050718448267716
10
139.90000000002487
20
-16.050718448270096
42
-0.41421356237308898
10
138.40000000002456
20
-14.550718448270443
10
138.40000000002323
20
-8.8507184482703956
42
-0.41421356237309354
10
139.90000000002289
20
-7.3507184482700483
10
150.10000000002296
20
-7.3507184482676555
42
-0.41421356237308965
0
CIRCLE
5
164
100
AcDbEntity
8
0
100
AcDbCircle
10
131.74984768646644
20
96.269281551760741
30
0
40
1.5500000000000114
210
-1.0482132874128286e-64
220
-7.5964541966078356e-65
230
1
0
CIRCLE
5
165
100
AcDbEntity
8
0
100
AcDbCircle
10
41.749847686446401
20
5.6892815517342621
30
0
40
1.5500000000000025
210
-1.0482132874128286e-64
220
-7.5964541966078356e-65
230
1
0
CIRCLE
5
166
100
AcDbEntity
8
0
100
AcDbCircle
10
131.74984768645589
20
5.6892815517133304
30
0
40
1.5500000000000114
210
-1.0482132874128286e-64
220
-7.5964541966078356e-65
230
1
0
CIRCLE
5
167
100
AcDbEntity
8
0
100
AcDbCircle
10
41.749847686456931
20
96.269281551760741
30
0
40
1.5500000000000025
210
-1.0482132874128286e-64
220
-7.5964541966078356e-65
230
1
0
LWPOLYLINE
5
168
100
AcDbEntity
8
0
100
AcDbPolyline
90
8
70
1
43
0.0
10
138.40000000000936
20
110.80928155176079
10
138.40000000000933
20
116.50928155176081
42
-0.41421356237309503
10
139.90000000000933
20
118.00928155176081
10
150.1000000000094
20
118.00928155176081
42
-0.41421356237309159
10
151.60000000000937
20
116.50928155176081
10
151.6000000000094
20
110.80928155176079
42
-0.41421356237309503
10
150.1000000000094
20
109.30928155176078
10
139.90000000000933
20
109.30928155176079
42
-0.41421356237309503
0
LWPOLYLINE
5
169
100
AcDbEntity
8
0
100
AcDbPolyline
90
8
70
1
43
0.0
10
61.599999999986053
20
-8.8507184482703938
10
61.59999999998476
20
-14.550718448270437
42
-0.41421356237309592
10
60.099999999984405
20
-16.050718448270086
10
49.899999999984317
20
-16.050718448267716
42
-0.4142135623730937
10
48.399999999984672
20
-14.550718448267364
10
48.399999999986001
20
-8.850718448267326
42
-0.41421356237309659
10
49.899999999986363
20
-7.3507184482676724
10
60.099999999986444
20
-7.3507184482700776
42
-0.4142135623730937
0
CIRCLE
5
170
100
AcDbEntity
8
0
100
AcDbCircle
10
158.25015231355275
20
96.269281551760727
30
0
40
1.5500000000000114
210
-1.0482132874128286e-64
220
-7.5964541966078356e-65
230
1
0
CIRCLE
5
171
100
AcDbEntity
8
0
100
AcDbCircle
10
68.250152313532368
20
5.6892815517281061
30
0
40
1.5500000000000025
210
-1.0482132874128286e-64
220
-7.5964541966078356e-65
230
1
0
CIRCLE
5
172
100
AcDbEntity
8
0
100
AcDbCircle
10
158.2501523135422
20
5.6892815517071753
30
0
40
1.5500000000000114
210
-1.0482132874128286e-64
220
-7.5964541966078356e-65
230
1
0
CIRCLE
5
173
100
AcDbEntity
8
0
100
AcDbCircle
10
68.250152313542884
20
96.269281551760741
30
0
40
1.5500000000000025
210
-1.0482132874128286e-64
220
-7.5964541966078356e-65
230
1
0
LWPOLYLINE
5
174
100
AcDbEntity
8
0
100
AcDbPolyline
90
8
70
1
43
0.0
10
48.399999999999949
20
110.80928155176079
10
48.399999999999928
20
116.50928155176082
42
-0.41421356237309503
10
49.899999999999935
20
118.00928155176082
10
60.100000000000016
20
118.00928155176082
42
-0.41421356237309503
10
61.600000000000023
20
116.50928155176082
10
61.600000000000001
20
110.80928155176079
42
-0.41421356237309503
10
60.099999999999994
20
109.30928155176078
10
49.899999999999913
20
109.30928155176082
42
-0.41421356237309503
0
LWPOLYLINE
5
175
100
AcDbEntity
8
0
100
AcDbPolyline
90
8
70
1
43
0.0
10
51.500000000000043
20
31.354281551757609
10
47.500000000000036
20
31.354281551757602
42
-0.41421356237309503
10
45.500000000000036
20
33.354281551757609
10
45.500000000000036
20
68.604281551757623
42
-0.41421356237309503
10
47.500000000000036
20
70.604281551757623
10
51.500000000000043
20
70.604281551757623
42
-0.41421356237309503
10
53.500000000000043
20
68.604281551757623
10
53.500000000000043
20
33.354281551757616
42
-0.4142135623730957
0
LWPOLYLINE
5
176
100
AcDbEntity
8
0
100
AcDbPolyline
90
8
70
1
43
0.0
10
152.5
20
31.354281551757651
10
148.5
20
31.354281551757659
42
-0.41421356237309503
10
146.50000000000003
20
33.354281551757651
10
146.5
20
68.604281551757666
42
-0.41421356237309503
10
148.49999999999997
20
70.60428155175768
10
152.49999999999997
20
70.604281551757651
42
-0.41421356237309503
10
154.49999999999994
20
68.604281551757666
10
154.5
20
33.354281551757659
42
-0.4142135623730957
0
LWPOLYLINE
5
177
100
AcDbEntity
8
0
100
AcDbPolyline
90
8
70
1
43
0.0
10
196.70000000000059
20
114.6792815517577
10
196.70000000000059
20
79.279281551757691
42
-0.41421356237309503
10
194.20000000000059
20
76.779281551757691
10
176.80000000000058
20
76.779281551757691
42
-0.41421356237309503
10
174.30000000000058
20
79.279281551757691
10
174.30000000000058
20
114.6792815517577
42
-0.41421356237309503
10
176.80000000000058
20
117.1792815517577
10
194.20000000000059
20
117.1792815517577
42
-0.41421356237309503
0
LWPOLYLINE
5
178
100
AcDbEntity
8
0
100
AcDbPolyline
90
4
70
1
43
0.0
10
170.30000000000035
20
30.979281551757655
10
170.30000000000015
20
70.979281551757666
10
174.30000000000013
20
70.97928155175768
10
174.30000000000035
20
30.979281551757651
0
LWPOLYLINE
5
179
100
AcDbEntity
8
0
100
AcDbPolyline
90
8
70
1
43
0.0
10
192.2000000000001
20
30.979281551757659
10
178.79999999999998
20
30.979281551757666
42
-0.41421356237309503
10
176.29999999999998
20
33.479281551757666
10
176.29999999999998
20
68.479281551757666
42
-0.41421356237309503
10
178.79999999999998
20
70.979281551757666
10
192.2000000000001
20
70.979281551757666
42
-0.41421356237309503
10
194.7000000000001
20
68.479281551757666
10
194.7000000000001
20
33.479281551757659
42
-0.41421356237309503
0
CIRCLE
5
180
100
AcDbEntity
8
0
100
AcDbCircle
10
230.04999999999995
20
3.1415926535903509
30
0
40
1.5000000000000213
210
-4.5082903407156897e-130
220
5.9409111446723728e-211
230
1
0
CIRCLE
5
181
100
AcDbEntity
8
0
100
AcDbCircle
10
221.29999999999995
20
3.1415926535903518
30
0
40
5.9999999999999787
210
-4.5082903407156905e-130
220
5.9409111446723736e-211
230
1
0
CIRCLE
5
182
100
AcDbEntity
8
0
100
AcDbCircle
10
212.54999999999995
20
3.1415926535903509
30
0
40
1.5000000000000213
210
-4.5082903407156897e-130
220
5.9409111446723728e-211
230
1
0
CIRCLE
5
183
100
AcDbEntity
8
0
100
AcDbCircle
10
221.29999999999995
20
70.354281551769887
30
0
40
6.0000000000000142
210
-4.5082903407156897e-130
220
5.9409111446723728e-211
230
1
0
CIRCLE
5
184
100
AcDbEntity
8
0
100
AcDbCircle
10
212.54999999999995
20
70.354281551769901
30
0
40
1.5000000000000213
210
-4.5082903407156897e-130
220
5.9409111446723728e-211
230
1
0
CIRCLE
5
185
100
AcDbEntity
8
0
100
AcDbCircle
10
230.04999999999995
20
70.354281551769887
30
0
40
1.5000000000000213
210
-4.5082903407156897e-130
220
5.9409111446723728e-211
230
1
0
LWPOLYLINE
5
186
100
AcDbEntity
8
0
100
AcDbPolyline
90
8
70
1
43
0.0
10
194.20000000000059
20
-15.220718448242376
10
176.80000000000058
20
-15.220718448242376
42
-0.41421356237309553
10
174.30000000000058
20
-12.720718448242373
10
174.30000000000058
20
22.679281551757633
42
-0.41421356237309503
10
176.80000000000058
20
25.179281551757633
10
194.20000000000059
20
25.179281551757633
42
-0.41421356237309503
10
196.70000000000059
20
22.679281551757633
10
196.70000000000059
20
-12.720718448242376
42
-0.41421356237309503
0
LWPOLYLINE
5
187
100
AcDbEntity
8
0
100
AcDbPolyline
90
4
70
1
43
0.0
10
200.69999999999993
20
70.979281551757694
10
200.69999999999993
20
30.979281551757659
10
196.69999999999993
20
30.979281551757666
10
196.69999999999993
20
70.979281551757708
0
LWPOLYLINE
5
188
100
AcDbEntity
8
0
100
AcDbPolyline
90
4
70
1
43
0.0
10
-0.69999999999993179
20
30.979281551757666
10
-0.69999999999993179
20
70.979281551757708
10
3.300000000000054
20
70.979281551757694
10
3.300000000000054
20
30.979281551757659
0
LWPOLYLINE
5
189
100
AcDbEntity
8
0
100
AcDbPolyline
90
8
70
1
43
0.0
10
23.199999999999434
20
-15.220718448242376
10
5.7999999999994145
20
-15.220718448242376
42
-0.41421356237309515
10
3.2999999999994145
20
-12.720718448242376
10
3.2999999999994136
20
22.679281551757633
42
-0.41421356237309515
10
5.7999999999994145
20
25.179281551757633
10
23.199999999999434
20
25.179281551757633
42
-0.41421356237309503
10
25.699999999999434
20
22.679281551757633
10
25.699999999999434
20
-12.720718448242373
42
-0.41421356237309581
0
CIRCLE
5
190
100
AcDbEntity
8
0
100
AcDbCircle
10
-30.049999999999955
20
70.354281551769887
30
0
40
1.5000000000000213
210
4.5082903407156881e-130
220
5.9409111446723685e-211
230
1
0
CIRCLE
5
191
100
AcDbEntity
8
0
100
AcDbCircle
10
-12.549999999999955
20
70.354281551769901
30
0
40
1.5000000000000213
210
4.5082903407156881e-130
220
5.9409111446723685e-211
230
1
0
CIRCLE
5
192
100
AcDbEntity
8
0
100
AcDbCircle
10
-21.299999999999955
20
70.354281551769887
30
0
40
6.0000000000000142
210
4.5082903407156889e-130
220
5.9409111446723694e-211
230
1
0
CIRCLE
5
193
100
AcDbEntity
8
0
100
AcDbCircle
10
-12.549999999999955
20
3.1415926535903509
30
0
40
1.5000000000000213
210
4.5082903407156881e-130
220
5.9409111446723685e-211
230
1
0
CIRCLE
5
194
100
AcDbEntity
8
0
100
AcDbCircle
10
-21.299999999999955
20
3.1415926535903518
30
0
40
5.9999999999999787
210
4.5082903407156889e-130
220
5.9409111446723694e-211
230
1
0
CIRCLE
5
195
100
AcDbEntity
8
0
100
AcDbCircle
10
-30.049999999999955
20
3.1415926535903509
30
0
40
1.5000000000000213
210
4.5082903407156881e-130
220
5.9409111446723685e-211
230
1
0
LWPOLYLINE
5
196
100
AcDbEntity
8
0
100
AcDbPolyline
90
8
70
1
43
0.0
10
21.20000000000001
20
30.979281551757659
10
7.7999999999999048
20
30.979281551757659
42
-0.41421356237309531
10
5.2999999999999048
20
33.479281551757659
10
5.2999999999999012
20
68.479281551757666
42
-0.41421356237309337
10
7.7999999999999048
20
70.979281551757666
10
21.20000000000001
20
70.979281551757666
42
-0.41421356237309453
10
23.70000000000001
20
68.479281551757666
10
23.70000000000001
20
33.479281551757666
42
-0.41421356237309553
0
LWPOLYLINE
5
197
100
AcDbEntity
8
0
100
AcDbPolyline
90
4
70
1
43
0.0
10
29.699999999999847
20
70.97928155175768
10
29.699999999999633
20
30.979281551757659
10
25.699999999999648
20
30.979281551757651
10
25.699999999999861
20
70.97928155175768
0
LWPOLYLINE
5
198
100
AcDbEntity
8
0
100
AcDbPolyline
90
8
70
1
43
0.0
10
3.2999999999994145
20
79.279281551757691
10
3.2999999999994212
20
114.6792815517577
42
-0.41421356237309426
10
5.7999999999994145
20
117.1792815517577
10
23.199999999999434
20
117.1792815517577
42
-0.41421356237309453
10
25.699999999999434
20
114.6792815517577
10
25.699999999999431
20
79.279281551757705
42
-0.41421356237309453
10
23.199999999999434
20
76.779281551757691
10
5.7999999999994145
20
76.779281551757691
42
-0.41421356237309337
0
ENDSEC
0
SECTION
2
OBJECTS
0
DICTIONARY
5
C
100
AcDbDictionary
3
ACAD_GROUP
350
D
3
ACAD_MLINESTYLE
350
17
0
DICTIONARY
5
D
100
AcDbDictionary
0
DICTIONARY
5
1A
330
C
100
AcDbDictionary
0
DICTIONARY
5
17
100
AcDbDictionary
0
ENDSEC
0
EOF
