0
SECTION
2
HEADER
9
$INSUNITS
70
4
9
$ACADVER
1
AC1014
9
$HANDSEED
5
FFFF
0
ENDSEC
0
SECTION
2
TABLES
0
TABLE
2
VPORT
5
8
100
AcDbSymbolTable
0
ENDTAB
0
TABLE
2
LTYPE
5
5
100
AcDbSymbolTable
0
LTYPE
5
14
100
AcDbSymbolTableRecord
100
AcDbLinetypeTableRecord
2
BYBLOCK
70
0
0
LTYPE
5
15
100
AcDbSymbolTableRecord
100
AcDbLinetypeTableRecord
2
BYLAYER
70
0
0
LTYPE
5
16
100
AcDbSymbolTableRecord
100
AcDbLinetypeTableRecord
2
DASHED
70
0
3
Dashed __ __ __ __ __ __ __ __ __ __ __ __ __ _
72
65
73
2
40
0.75
49
0.5
74
0
49
-0.25
74
0
0
ENDTAB
0
TABLE
2
LAYER
5
2
100
AcDbSymbolTable
70
2
0
LAYER
5
50
100
AcDbSymbolTableRecord
100
AcDbLayerTableRecord
2
0
70
0
62
7
6
CONTINUOUS
0
ENDTAB
0
TABLE
2
STYLE
5
3
100
AcDbSymbolTable
70
1
0
STYLE
5
11
100
AcDbSymbolTableRecord
100
AcDbTextStyleTableRecord
2
STANDARD
70
0
0
ENDTAB
0
TABLE
2
VIEW
5
6
100
AcDbSymbolTable
70
0
0
ENDTAB
0
TABLE
2
UCS
5
7
100
AcDbSymbolTable
70
0
0
ENDTAB
0
TABLE
2
APPID
5
9
100
AcDbSymbolTable
70
2
0
APPID
5
12
100
AcDbSymbolTableRecord
100
AcDbRegAppTableRecord
2
ACAD
70
0
0
ENDTAB
0
TABLE
2
DIMSTYLE
5
A
100
AcDbSymbolTable
70
1
0
ENDTAB
0
TABLE
2
BLOCK_RECORD
5
1
100
AcDbSymbolTable
70
1
0
BLOCK_RECORD
5
1F
100
AcDbSymbolTableRecord
100
AcDbBlockTableRecord
2
*MODEL_SPACE
0
BLOCK_RECORD
5
1B
100
AcDbSymbolTableRecord
100
AcDbBlockTableRecord
2
*PAPER_SPACE
0
ENDTAB
0
ENDSEC
0
SECTION
2
BLOCKS
0
BLOCK
5
20
100
AcDbEntity
100
AcDbBlockBegin
2
*MODEL_SPACE
0
ENDBLK
5
21
100
AcDbEntity
100
AcDbBlockEnd
0
BLOCK
5
1C
100
AcDbEntity
100
AcDbBlockBegin
2
*PAPER_SPACE
0
ENDBLK
5
1D
100
AcDbEntity
100
AcDbBlockEnd
0
ENDSEC
0
SECTION
2
ENTITIES
0
CIRCLE
5
100
100
AcDbEntity
8
0
100
AcDbCircle
10
238.35000000000574
20
-40.299999999999905
30
0
40
1.4999999999999858
210
-0
220
0
230
1
0
CIRCLE
5
101
100
AcDbEntity
8
0
100
AcDbCircle
10
231.85000000000593
20
-40.299999999999905
30
0
40
1.4999999999999858
210
-0
220
0
230
1
0
CIRCLE
5
102
100
AcDbEntity
8
0
100
AcDbCircle
10
20.000000000001094
20
-50.19999999999996
30
0
40
1.4999999999999991
210
-0
220
0
230
1
0
CIRCLE
5
103
100
AcDbEntity
8
0
100
AcDbCircle
10
160.00000000000111
20
-50.19999999999996
30
0
40
1.5000000000000213
210
-0
220
0
230
1
0
CIRCLE
5
104
100
AcDbEntity
8
0
100
AcDbCircle
10
80.000000000001108
20
-50.19999999999996
30
0
40
1.5000000000000036
210
-0
220
0
230
1
0
CIRCLE
5
105
100
AcDbEntity
8
0
100
AcDbCircle
10
60.000000000001101
20
-50.19999999999996
30
0
40
1.5000000000000036
210
-0
220
0
230
1
0
CIRCLE
5
106
100
AcDbEntity
8
0
100
AcDbCircle
10
140.00000000000111
20
-50.19999999999996
30
0
40
1.5000000000000036
210
-0
220
0
230
1
0
CIRCLE
5
107
100
AcDbEntity
8
0
100
AcDbCircle
10
220.00000000000111
20
-50.19999999999996
30
0
40
1.5000000000000213
210
-0
220
0
230
1
0
CIRCLE
5
108
100
AcDbEntity
8
0
100
AcDbCircle
10
1.0924594562129787e-12
20
-50.19999999999996
30
0
40
1.5000000000000013
210
-0
220
0
230
1
0
CIRCLE
5
109
100
AcDbEntity
8
0
100
AcDbCircle
10
180.00000000000111
20
-50.19999999999996
30
0
40
1.5000000000000213
210
-0
220
0
230
1
0
CIRCLE
5
110
100
AcDbEntity
8
0
100
AcDbCircle
10
100.00000000000111
20
-50.19999999999996
30
0
40
1.5000000000000036
210
-0
220
0
230
1
0
CIRCLE
5
111
100
AcDbEntity
8
0
100
AcDbCircle
10
40.000000000001094
20
-50.19999999999996
30
0
40
1.5000000000000036
210
-0
220
0
230
1
0
CIRCLE
5
112
100
AcDbEntity
8
0
100
AcDbCircle
10
120.00000000000111
20
-50.19999999999996
30
0
40
1.5000000000000036
210
-0
220
0
230
1
0
CIRCLE
5
113
100
AcDbEntity
8
0
100
AcDbCircle
10
200.00000000000111
20
-50.19999999999996
30
0
40
1.5000000000000213
210
-0
220
0
230
1
0
CIRCLE
5
114
100
AcDbEntity
8
0
100
AcDbCircle
10
-19.999999999998913
20
-50.19999999999996
30
0
40
1.5000000000000013
210
-0
220
0
230
1
0
CIRCLE
5
115
100
AcDbEntity
8
0
100
AcDbCircle
10
237.46231110183729
20
-28.999999999925432
30
0
40
1.5749999999999886
210
-0
220
0
230
1
0
CIRCLE
5
116
100
AcDbEntity
8
0
100
AcDbCircle
10
223.96231110168839
20
-15.499999999999972
30
0
40
1.5749999999999886
210
-0
220
0
230
1
0
CIRCLE
5
117
100
AcDbEntity
8
0
100
AcDbCircle
10
223.96231110183732
20
-42.499999999999964
30
0
40
1.5749999999999886
210
-0
220
0
230
1
0
CIRCLE
5
118
100
AcDbEntity
8
0
100
AcDbCircle
10
223.96231110183382
20
-29.000000000000362
30
0
40
5.5000000000000071
210
0
220
-0
230
1
0
CIRCLE
5
119
100
AcDbEntity
8
0
100
AcDbCircle
10
-36.962311101832661
20
-41.999999999999964
30
0
40
1.4999999999999991
210
0
220
-0
230
1
0
CIRCLE
5
120
100
AcDbEntity
8
0
100
AcDbCircle
10
-36.962311101832654
20
-15.99999999999997
30
0
40
1.4999999999999991
210
0
220
-0
230
1
0
CIRCLE
5
121
100
AcDbEntity
8
0
100
AcDbCircle
10
-23.962311101832654
20
-28.999999999999968
30
0
40
12.000000000000011
210
0
220
-0
230
1
0
CIRCLE
5
122
100
AcDbEntity
8
0
100
AcDbCircle
10
-10.962311101832656
20
-41.999999999999964
30
0
40
1.5000000000000013
210
0
220
-0
230
1
0
CIRCLE
5
123
100
AcDbEntity
8
0
100
AcDbCircle
10
-10.962311101832656
20
-15.999999999999964
30
0
40
1.5000000000000013
210
0
220
-0
230
1
0
CIRCLE
5
124
100
AcDbEntity
8
0
100
AcDbCircle
10
100
20
-9.499999999999968
30
0
40
1.5000000000000036
210
0
220
-0
230
1
0
CIRCLE
5
125
100
AcDbEntity
8
0
100
AcDbCircle
10
100
20
-58.499999999999957
30
0
40
1.5000000000000036
210
0
220
-0
230
1
0
LWPOLYLINE
5
126
100
AcDbEntity
8
0
100
AcDbPolyline
90
4
70
1
43
0.0
10
25.699999999999399
20
-26.499999999999972
10
29.699999999999385
20
-26.499999999999972
10
29.69999999999942
20
-41.499999999999972
10
25.699999999999434
20
-41.499999999999972
0
LWPOLYLINE
5
127
100
AcDbEntity
8
0
100
AcDbPolyline
90
4
70
1
43
0.0
10
-41.462311101832654
20
-7.4999999999999645
10
-33.731155550916299
20
-7.4999999999999654
10
-33.731155550916299
20
-11.499999999999968
10
-41.462311101832654
20
-11.499999999999968
0
LWPOLYLINE
5
128
100
AcDbEntity
8
0
100
AcDbPolyline
90
4
70
1
43
0.0
10
-33.731155550916299
20
27.500000000000036
10
-33.731155550916299
20
23.500000000000032
10
-41.462311101832654
20
23.500000000000032
10
-41.462311101832654
20
27.500000000000032
0
LWPOLYLINE
5
129
100
AcDbEntity
8
0
100
AcDbPolyline
90
4
70
1
43
0.0
10
-5.7000000000000384
20
51.500000000000021
10
-1.7000000000000526
20
51.500000000000021
10
-1.7000000000000881
20
36.500000000000028
10
-5.7000000000000739
20
36.500000000000028
0
LWPOLYLINE
5
130
100
AcDbEntity
8
0
100
AcDbPolyline
90
4
70
1
43
0.0
10
3.300000000000054
20
-26.499999999999972
10
3.300000000000054
20
-41.499999999999972
10
-0.69999999999993179
20
-41.499999999999972
10
-0.69999999999993179
20
-26.499999999999972
0
LWPOLYLINE
5
131
100
AcDbEntity
8
0
100
AcDbPolyline
90
148
70
1
43
0.0
10
75
20
-11.499999999999968
10
-18.731155550916299
20
-11.499999999999968
10
-18.731155550916299
20
-7.4999999999999662
10
-10.999999999999908
20
-7.4999999999999654
10
-10.999999999999908
20
23.500000000000032
10
-18.731155550916299
20
23.500000000000032
10
-18.731155550916299
20
27.500000000000036
10
24.70000000000006
20
27.500000000000032
10
24.70000000000006
20
36.500000000000028
10
20.700000000000074
20
36.500000000000028
10
20.700000000000074
20
42.500000000000036
10
17.399999999999984
20
42.500000000000036
10
17.399999999999984
20
41.250000000000036
10
15
20
41.250000000000036
10
15
20
42.500000000000036
10
11.999999999999993
20
42.500000000000036
10
11.999999999999993
20
45.500000000000036
10
15
20
45.500000000000036
10
15
20
46.750000000000036
10
17.399999999999984
20
46.750000000000036
10
17.399999999999984
20
45.500000000000036
10
20.700000000000074
20
45.500000000000036
10
20.700000000000074
20
51.500000000000021
10
24.70000000000006
20
51.500000000000021
10
24.70000000000006
20
60.500000000000028
10
6.2688444490836659
20
60.500000000000028
10
6.2688444490836659
20
64.500000000000028
10
-23.731155550916299
20
64.500000000000028
10
-23.731155550916299
20
60.500000000000028
10
-45.46231110183264
20
60.500000000000028
10
-45.46231110183264
20
51.500000000000028
10
-41.46231110183269
20
51.500000000000014
10
-41.46231110183269
20
45.500000000000036
10
-38.862311101832638
20
45.500000000000036
10
-38.862311101832638
20
46.750000000000036
10
-36.462311101832654
20
46.750000000000036
10
-36.462311101832654
20
45.500000000000036
10
-33.462311101832647
20
45.500000000000036
10
-33.462311101832647
20
42.500000000000036
10
-36.462311101832654
20
42.500000000000036
10
-36.462311101832654
20
41.250000000000036
10
-38.862311101832638
20
41.250000000000036
10
-38.862311101832638
20
42.500000000000036
10
-41.46231110183269
20
42.500000000000036
10
-41.46231110183269
20
36.500000000000028
10
-45.46231110183264
20
36.500000000000028
10
-45.46231110183264
20
15.500000000000034
10
-41.46231110183269
20
15.500000000000034
10
-41.46231110183269
20
9.5000000000000338
10
-38.862311101832603
20
9.5000000000000338
10
-38.862311101832603
20
10.750000000000036
10
-36.462311101832618
20
10.750000000000036
10
-36.462311101832618
20
9.5000000000000338
10
-33.462311101832611
20
9.5000000000000338
10
-33.462311101832611
20
6.5000000000000338
10
-36.462311101832618
20
6.5000000000000338
10
-36.462311101832618
20
5.2500000000000338
10
-38.862311101832603
20
5.2500000000000346
10
-38.862311101832603
20
6.5000000000000338
10
-41.46231110183269
20
6.5000000000000338
10
-41.46231110183269
20
0.50000000000003375
10
-45.46231110183264
20
0.50000000000003386
10
-45.46231110183264
20
-26.499999999999972
10
-41.46231110183269
20
-26.499999999999972
10
-41.46231110183269
20
-41.499999999999972
10
-45.46231110183264
20
-41.499999999999972
10
-45.46231110183264
20
-56.499999999999972
10
-23.731155550916299
20
-56.499999999999972
10
-23.731155550916299
20
-60.499999999999972
10
6.2688444490837014
20
-60.499999999999972
10
6.2688444490837014
20
-56.499999999999972
10
75
20
-56.499999999999972
10
75
20
-60.499999999999972
10
125
20
-60.499999999999972
10
125
20
-56.499999999999972
10
193.7311555509163
20
-56.499999999999972
10
193.7311555509163
20
-60.499999999999972
10
223.7311555509163
20
-60.499999999999972
10
223.7311555509163
20
-56.499999999999972
10
245.46231110183265
20
-56.499999999999972
10
245.46231110183265
20
-41.499999999999972
10
241.46231110183268
20
-41.499999999999972
10
241.46231110183268
20
-26.499999999999972
10
245.46231110183265
20
-26.499999999999972
10
245.46231110183265
20
0.50000000000003375
10
241.46231110183268
20
0.50000000000003375
10
241.46231110183268
20
6.5000000000000338
10
238.8623111018326
20
6.5000000000000338
10
238.8623111018326
20
5.2500000000000346
10
236.46231110183263
20
5.2500000000000338
10
236.46231110183263
20
6.5000000000000338
10
233.4623111018326
20
6.5000000000000338
10
233.4623111018326
20
9.5000000000000338
10
236.46231110183263
20
9.5000000000000338
10
236.46231110183263
20
10.750000000000036
10
238.8623111018326
20
10.750000000000036
10
238.8623111018326
20
9.5000000000000338
10
241.46231110183268
20
9.5000000000000338
10
241.46231110183268
20
15.500000000000034
10
245.46231110183265
20
15.500000000000034
10
245.46231110183265
20
36.500000000000028
10
241.46231110183268
20
36.500000000000028
10
241.46231110183268
20
42.500000000000036
10
238.86231110183263
20
42.500000000000036
10
238.86231110183263
20
41.250000000000036
10
236.46231110183265
20
41.250000000000036
10
236.46231110183265
20
42.500000000000036
10
233.46231110183265
20
42.500000000000036
10
233.46231110183265
20
45.500000000000036
10
236.46231110183265
20
45.500000000000036
10
236.46231110183265
20
46.750000000000036
10
238.86231110183263
20
46.750000000000036
10
238.86231110183263
20
45.500000000000036
10
241.46231110183268
20
45.500000000000036
10
241.46231110183268
20
51.500000000000014
10
245.46231110183265
20
51.500000000000028
10
245.46231110183265
20
60.500000000000028
10
223.7311555509163
20
60.500000000000028
10
223.7311555509163
20
64.500000000000028
10
193.73115555091633
20
64.500000000000028
10
193.73115555091633
20
60.500000000000028
10
175.29999999999995
20
60.500000000000028
10
175.29999999999995
20
51.500000000000021
10
179.29999999999993
20
51.500000000000021
10
179.29999999999993
20
45.500000000000036
10
182.60000000000002
20
45.500000000000036
10
182.60000000000002
20
46.750000000000036
10
185
20
46.750000000000036
10
185
20
45.500000000000036
10
188
20
45.500000000000036
10
188
20
42.500000000000036
10
185
20
42.500000000000036
10
185
20
41.250000000000036
10
182.60000000000002
20
41.250000000000036
10
182.60000000000002
20
42.500000000000036
10
179.29999999999993
20
42.500000000000036
10
179.29999999999993
20
36.500000000000028
10
175.29999999999995
20
36.500000000000028
10
175.29999999999995
20
27.500000000000032
10
218.7311555509163
20
27.500000000000036
10
218.7311555509163
20
23.500000000000032
10
210.99999999999991
20
23.500000000000032
10
210.99999999999991
20
-7.4999999999999645
10
218.7311555509163
20
-7.4999999999999662
10
218.7311555509163
20
-11.499999999999968
10
125
20
-11.499999999999968
10
125
20
-7.499999999999968
10
75
20
-7.499999999999968
0
LWPOLYLINE
5
132
100
AcDbEntity
8
0
100
AcDbPolyline
90
4
70
1
43
0.0
10
174.30000000000058
20
-41.499999999999972
10
170.30000000000058
20
-41.499999999999972
10
170.30000000000061
20
-26.499999999999972
10
174.30000000000061
20
-26.499999999999972
0
LWPOLYLINE
5
133
100
AcDbEntity
8
0
100
AcDbPolyline
90
4
70
1
43
0.0
10
196.69999999999993
20
-41.499999999999972
10
196.69999999999993
20
-26.499999999999972
10
200.69999999999993
20
-26.499999999999972
10
200.69999999999993
20
-41.499999999999972
0
LWPOLYLINE
5
134
100
AcDbEntity
8
0
100
AcDbPolyline
90
4
70
1
43
0.0
10
201.70000000000005
20
51.500000000000021
10
205.70000000000005
20
51.500000000000021
10
205.70000000000007
20
36.500000000000028
10
201.7000000000001
20
36.500000000000028
0
LWPOLYLINE
5
135
100
AcDbEntity
8
0
100
AcDbPolyline
90
4
70
1
43
0.0
10
233.7311555509163
20
23.500000000000032
10
233.7311555509163
20
27.500000000000036
10
241.46231110183265
20
27.500000000000032
10
241.46231110183265
20
23.500000000000032
0
LWPOLYLINE
5
136
100
AcDbEntity
8
0
100
AcDbPolyline
90
4
70
1
43
0.0
10
233.7311555509163
20
-7.4999999999999654
10
241.46231110183265
20
-7.4999999999999645
10
241.46231110183265
20
-11.499999999999968
10
233.7311555509163
20
-11.499999999999968
0
ENDSEC
0
SECTION
2
OBJECTS
0
DICTIONARY
5
C
100
AcDbDictionary
3
ACAD_GROUP
350
D
3
ACAD_MLINESTYLE
350
17
0
DICTIONARY
5
D
100
AcDbDictionary
0
DICTIONARY
5
1A
330
C
100
AcDbDictionary
0
DICTIONARY
5
17
100
AcDbDictionary
0
ENDSEC
0
EOF
