0
SECTION
2
HEADER
9
$INSUNITS
70
4
9
$ACADVER
1
AC1014
9
$HANDSEED
5
FFFF
0
ENDSEC
0
SECTION
2
TABLES
0
TABLE
2
VPORT
5
8
100
AcDbSymbolTable
0
ENDTAB
0
TABLE
2
LTYPE
5
5
100
AcDbSymbolTable
0
LTYPE
5
14
100
AcDbSymbolTableRecord
100
AcDbLinetypeTableRecord
2
BYBLOCK
70
0
0
LTYPE
5
15
100
AcDbSymbolTableRecord
100
AcDbLinetypeTableRecord
2
BYLAYER
70
0
0
LTYPE
5
16
100
AcDbSymbolTableRecord
100
AcDbLinetypeTableRecord
2
DASHED
70
0
3
Dashed __ __ __ __ __ __ __ __ __ __ __ __ __ _
72
65
73
2
40
0.75
49
0.5
74
0
49
-0.25
74
0
0
ENDTAB
0
TABLE
2
LAYER
5
2
100
AcDbSymbolTable
70
2
0
LAYER
5
50
100
AcDbSymbolTableRecord
100
AcDbLayerTableRecord
2
0
70
0
62
7
6
CONTINUOUS
0
ENDTAB
0
TABLE
2
STYLE
5
3
100
AcDbSymbolTable
70
1
0
STYLE
5
11
100
AcDbSymbolTableRecord
100
AcDbTextStyleTableRecord
2
STANDARD
70
0
0
ENDTAB
0
TABLE
2
VIEW
5
6
100
AcDbSymbolTable
70
0
0
ENDTAB
0
TABLE
2
UCS
5
7
100
AcDbSymbolTable
70
0
0
ENDTAB
0
TABLE
2
APPID
5
9
100
AcDbSymbolTable
70
2
0
APPID
5
12
100
AcDbSymbolTableRecord
100
AcDbRegAppTableRecord
2
ACAD
70
0
0
ENDTAB
0
TABLE
2
DIMSTYLE
5
A
100
AcDbSymbolTable
70
1
0
ENDTAB
0
TABLE
2
BLOCK_RECORD
5
1
100
AcDbSymbolTable
70
1
0
BLOCK_RECORD
5
1F
100
AcDbSymbolTableRecord
100
AcDbBlockTableRecord
2
*MODEL_SPACE
0
BLOCK_RECORD
5
1B
100
AcDbSymbolTableRecord
100
AcDbBlockTableRecord
2
*PAPER_SPACE
0
ENDTAB
0
ENDSEC
0
SECTION
2
BLOCKS
0
BLOCK
5
20
100
AcDbEntity
100
AcDbBlockBegin
2
*MODEL_SPACE
0
ENDBLK
5
21
100
AcDbEntity
100
AcDbBlockEnd
0
BLOCK
5
1C
100
AcDbEntity
100
AcDbBlockBegin
2
*PAPER_SPACE
0
ENDBLK
5
1D
100
AcDbEntity
100
AcDbBlockEnd
0
ENDSEC
0
SECTION
2
ENTITIES
0
CIRCLE
5
100
100
AcDbEntity
8
0
100
AcDbCircle
10
81.5
20
62.179281551755551
30
0
40
1.5000000000000036
210
-4.5082903407156889e-130
220
5.9409111446723694e-211
230
1
0
CIRCLE
5
101
100
AcDbEntity
8
0
100
AcDbCircle
10
76.5
20
62.179281551755551
30
0
40
1.5000000000000036
210
-4.5082903407156889e-130
220
5.9409111446723694e-211
230
1
0
CIRCLE
5
102
100
AcDbEntity
8
0
100
AcDbCircle
10
76.5
20
52.179281551755551
30
0
40
1.5000000000000036
210
-4.5082903407156889e-130
220
5.9409111446723694e-211
230
1
0
CIRCLE
5
103
100
AcDbEntity
8
0
100
AcDbCircle
10
81.5
20
95.479281551755477
30
0
40
1.5000000000000036
210
-4.5082903407156889e-130
220
5.9409111446723694e-211
230
1
0
LWPOLYLINE
5
104
100
AcDbEntity
8
0
100
AcDbPolyline
90
8
70
1
43
0.0
10
166.29999999997801
20
113.97928155177479
10
166.29999999997801
20
108.47928155175549
42
-0.41421356237309503
10
161.29999999997801
20
103.47928155175549
10
141.5
20
103.47928155175549
42
-0.41421356237309503
10
136.5
20
108.47928155175549
10
136.5
20
113.97928155177479
42
-0.41421356237309503
10
141.5
20
118.97928155177479
10
161.29999999997801
20
118.97928155177479
42
-0.41421356237309503
0
CIRCLE
5
105
100
AcDbEntity
8
0
100
AcDbCircle
10
76.5
20
95.479281551755477
30
0
40
1.5000000000000036
210
-4.5082903407156889e-130
220
5.9409111446723694e-211
230
1
0
CIRCLE
5
106
100
AcDbEntity
8
0
100
AcDbCircle
10
81.5
20
90.479281551755477
30
0
40
1.5000000000000036
210
-4.5082903407156889e-130
220
5.9409111446723694e-211
230
1
0
CIRCLE
5
107
100
AcDbEntity
8
0
100
AcDbCircle
10
71.5
20
52.179281551755494
30
0
40
1.5000000000000036
210
-4.5082903407156889e-130
220
5.9409111446723694e-211
230
1
0
CIRCLE
5
108
100
AcDbEntity
8
0
100
AcDbCircle
10
76.5
20
57.179281551755551
30
0
40
1.5000000000000036
210
-4.5082903407156889e-130
220
5.9409111446723694e-211
230
1
0
CIRCLE
5
109
100
AcDbEntity
8
0
100
AcDbCircle
10
81.5
20
85.479281551755477
30
0
40
1.5000000000000036
210
-4.5082903407156889e-130
220
5.9409111446723694e-211
230
1
0
CIRCLE
5
110
100
AcDbEntity
8
0
100
AcDbCircle
10
81.5
20
57.179281551755551
30
0
40
1.5000000000000036
210
-4.5082903407156889e-130
220
5.9409111446723694e-211
230
1
0
CIRCLE
5
111
100
AcDbEntity
8
0
100
AcDbCircle
10
71.5
20
62.179281551755551
30
0
40
1.5000000000000036
210
-4.5082903407156889e-130
220
5.9409111446723694e-211
230
1
0
CIRCLE
5
112
100
AcDbEntity
8
0
100
AcDbCircle
10
76.5
20
90.479281551755477
30
0
40
1.5000000000000036
210
-4.5082903407156889e-130
220
5.9409111446723694e-211
230
1
0
CIRCLE
5
113
100
AcDbEntity
8
0
100
AcDbCircle
10
71.5
20
90.479281551755477
30
0
40
1.5000000000000036
210
-4.5082903407156889e-130
220
5.9409111446723694e-211
230
1
0
LWPOLYLINE
5
114
100
AcDbEntity
8
0
100
AcDbPolyline
90
8
70
1
43
0.0
10
38.700000000022015
20
118.97928155177479
10
58.5
20
118.97928155177479
42
-0.41421356237309503
10
63.5
20
113.97928155177479
10
63.5
20
108.47928155175549
42
-0.41421356237309503
10
58.5
20
103.47928155175549
10
38.700000000022015
20
103.47928155175549
42
-0.41421356237309503
10
33.700000000022015
20
108.47928155175549
10
33.700000000022015
20
113.97928155177479
42
-0.41421356237309503
0
CIRCLE
5
115
100
AcDbEntity
8
0
100
AcDbCircle
10
71.5
20
95.479281551755477
30
0
40
1.5000000000000036
210
-4.5082903407156889e-130
220
5.9409111446723694e-211
230
1
0
CIRCLE
5
116
100
AcDbEntity
8
0
100
AcDbCircle
10
71.5
20
85.479281551755477
30
0
40
1.5000000000000036
210
-4.5082903407156889e-130
220
5.9409111446723694e-211
230
1
0
CIRCLE
5
117
100
AcDbEntity
8
0
100
AcDbCircle
10
71.5
20
57.179281551755551
30
0
40
1.5000000000000036
210
-4.5082903407156889e-130
220
5.9409111446723694e-211
230
1
0
CIRCLE
5
118
100
AcDbEntity
8
0
100
AcDbCircle
10
81.5
20
52.179281551755551
30
0
40
1.5000000000000036
210
-4.5082903407156889e-130
220
5.9409111446723694e-211
230
1
0
CIRCLE
5
119
100
AcDbEntity
8
0
100
AcDbCircle
10
76.5
20
85.479281551755477
30
0
40
1.5000000000000036
210
-4.5082903407156889e-130
220
5.9409111446723694e-211
230
1
0
CIRCLE
5
120
100
AcDbEntity
8
0
100
AcDbCircle
10
55.769217305663837
20
54.384315312594289
30
0
40
1.5000000000000036
210
-4.5082903407156889e-130
220
5.9409111446723694e-211
230
1
0
CIRCLE
5
121
100
AcDbEntity
8
0
100
AcDbCircle
10
100
20
105.47928155175548
30
0
40
1.5000000000000036
210
-4.5082903407156889e-130
220
5.9409111446723694e-211
230
1
0
CIRCLE
5
122
100
AcDbEntity
8
0
100
AcDbCircle
10
143.19094696750031
20
58.036135276894932
30
0
40
1.5000000000000036
210
-4.5082903407156889e-130
220
5.9409111446723694e-211
230
1
0
LWPOLYLINE
5
123
100
AcDbEntity
8
0
100
AcDbPolyline
90
4
70
1
43
0.0
10
29.699999999999847
20
70.97928155175768
10
29.699999999999633
20
30.979281551757659
10
25.699999999999648
20
30.979281551757666
10
25.699999999999861
20
70.97928155175768
0
LWPOLYLINE
5
124
100
AcDbEntity
8
0
100
AcDbPolyline
90
10
70
1
43
0.0
10
-33.352422459084337
20
66.595327193473139
10
-38.235547719287133
20
82.252204863905348
42
-0.075725077047221381
10
-38.462311101827972
20
83.740899659270411
10
-38.462311101827972
20
84.979281551761574
42
-0.41421356237309476
10
-33.462311101827979
20
89.979281551761574
10
-9.137688898171934
20
89.979281551761574
42
-0.41421356237309476
10
-4.1376888981719384
20
84.979281551761574
10
-4.1376888981719393
20
83.740899659270411
42
-0.075725077047221381
10
-4.3644522807127775
20
82.252204863905348
10
-9.2475775409155698
20
66.595327193473139
42
-0.73562353724338292
0
CIRCLE
5
125
100
AcDbEntity
8
0
100
AcDbCircle
10
-21.299999999999955
20
3.1415926535903518
30
0
40
12.624999999999993
210
4.5082903407156905e-130
220
-3.7982270983039195e-65
230
1
0
LWPOLYLINE
5
126
100
AcDbEntity
8
0
100
AcDbPolyline
90
4
70
1
43
0.0
10
3.300000000000054
20
30.979281551757669
10
-0.69999999999993179
20
30.979281551757666
10
-0.69999999999993179
20
70.97928155175768
10
3.300000000000054
20
70.97928155175768
0
LWPOLYLINE
5
127
100
AcDbEntity
8
0
100
AcDbPolyline
90
4
70
1
43
0.0
10
170.30000000000015
20
70.97928155175768
10
174.30000000000013
20
70.97928155175768
10
174.30000000000035
20
30.979281551757659
10
170.30000000000035
20
30.979281551757659
0
LWPOLYLINE
5
128
100
AcDbEntity
8
0
100
AcDbPolyline
90
4
70
1
43
0.0
10
200.69999999999993
20
30.979281551757666
10
196.69999999999993
20
30.979281551757669
10
196.69999999999993
20
70.97928155175768
10
200.69999999999993
20
70.97928155175768
0
CIRCLE
5
129
100
AcDbEntity
8
0
100
AcDbCircle
10
221.29999999999995
20
3.1415926535903518
30
0
40
12.624999999999993
210
-4.5082903407156897e-130
220
-3.7982270983039195e-65
230
1
0
CIRCLE
5
130
100
AcDbEntity
8
0
100
AcDbCircle
10
221.29999999999995
20
70.354281551769887
30
0
40
12.624999999999993
210
-4.5082903407156897e-130
220
-3.7982270983039195e-65
230
1
0
LWPOLYLINE
5
131
100
AcDbEntity
8
0
100
AcDbPolyline
90
140
70
1
43
0.0
10
101.49999999998946
20
-14.420718448256984
10
101.49999999998884
20
-17.02071844825544
10
125
20
-17.020718448235538
10
125
20
-21.020718448235538
10
193.7311555509163
20
-21.020718448235538
10
193.7311555509163
20
-17.020718448235538
10
223.7311555509163
20
-17.020718448235538
10
223.7311555509163
20
-21.020718448235538
10
241.46231110184419
20
-21.020718448242238
10
241.46231110182254
20
-8.7707184482424161
10
238.86231110183334
20
-8.7707184482423983
10
238.86231110183334
20
-10.020718448242398
10
236.46231110183334
20
-10.020718448242398
10
236.46231110183334
20
-8.7707184482423983
10
233.46231110183334
20
-8.7707184482423983
10
233.46231110183334
20
-5.7707184482423912
10
236.46231110183334
20
-5.7707184482423912
10
236.46231110183334
20
-4.5207184482423912
10
238.86231110183334
20
-4.5207184482423912
10
238.86231110183334
20
-5.7707184482423912
10
241.46231110182254
20
-5.770718448242409
10
241.46231110184419
20
2.4792815517577615
10
245.46231110184419
20
2.4792815517577607
10
245.46231110184419
20
27.479281551757616
10
241.46231110184419
20
27.479281551757616
10
241.46231110182254
20
49.479281551757609
10
238.86231110183334
20
49.479281551757609
10
238.86231110183334
20
48.22928155175758
10
236.46231110183334
20
48.229281551757609
10
236.46231110183334
20
49.479281551757609
10
233.46231110183336
20
49.479281551757609
10
233.46231110183336
20
52.479281551757623
10
236.46231110183336
20
52.479281551757623
10
236.46231110183336
20
53.729281551757623
10
238.86231110183334
20
53.729281551757623
10
238.86231110183334
20
52.479281551757623
10
241.46231110182254
20
52.479281551757623
10
241.46231110184416
20
74.479281551757907
10
245.46231110184414
20
74.479281551757907
10
245.46231110184414
20
99.479281551757794
10
241.46231110184416
20
99.479281551757794
10
241.46231110182254
20
107.72928155175775
10
238.86231110183328
20
107.72928155175771
10
238.86231110183328
20
106.47928155175775
10
236.46231110183328
20
106.47928155175771
10
236.46231110183328
20
107.72928155175771
10
233.46231110183328
20
107.72928155175771
10
233.46231110183328
20
110.72928155175772
10
236.46231110183328
20
110.72928155175772
10
236.46231110183328
20
111.97928155175772
10
238.86231110183328
20
111.97928155175775
10
238.86231110183328
20
110.72928155175772
10
241.46231110182254
20
110.72928155175775
10
241.46231110184414
20
122.97928155175781
10
223.7311555509163
20
122.97928155179758
10
223.7311555509163
20
118.97928155179757
10
193.7311555509163
20
118.97928155178478
10
193.7311555509163
20
122.97928155178479
10
125
20
122.97928155173416
10
125
20
118.97928155173416
10
101.50000000000466
20
118.97928155173646
10
101.50000000000466
20
116.37928155173809
10
102.75000000000466
20
116.37928155173809
10
102.75000000000466
20
113.97928155173808
10
101.50000000000466
20
113.97928155173808
10
101.50000000000466
20
110.97928155173807
10
98.500000000004647
20
110.97928155173807
10
98.500000000004647
20
113.97928155173808
10
97.250000000004647
20
113.97928155173808
10
97.250000000004647
20
116.37928155173809
10
98.500000000004647
20
116.37928155173809
10
98.500000000004647
20
118.97928155173733
10
75
20
118.97928155175548
10
75
20
122.97928155175548
10
6.2688444490837014
20
122.97928155178479
10
6.2688444490837014
20
118.97928155178478
10
-23.731155550916299
20
118.97928155179757
10
-23.731155550916299
20
122.97928155179758
10
-41.462311101844129
20
122.97928155175781
10
-41.462311101832654
20
110.72928155175779
10
-38.862311101832525
20
110.72928155175775
10
-38.862311101832525
20
111.97928155175775
10
-36.462311101832526
20
111.97928155175775
10
-36.462311101832526
20
110.72928155175775
10
-33.462311101832533
20
110.72928155175775
10
-33.46231110183254
20
107.72928155175775
10
-36.46231110183254
20
107.72928155175775
10
-36.46231110183254
20
106.47928155175775
10
-38.862311101832539
20
106.47928155175775
10
-38.862311101832539
20
107.72928155175775
10
-41.462311101832654
20
107.72928155175775
10
-41.462311101844165
20
99.479281551757794
10
-45.462311101844151
20
99.479281551757794
10
-45.462311101844151
20
74.479281551757907
10
-41.462311101844165
20
74.479281551757907
10
-41.462311101832654
20
52.479281551757694
10
-38.862311101832638
20
52.479281551757694
10
-38.862311101832638
20
53.729281551757694
10
-36.46231110183264
20
53.729281551757694
10
-36.46231110183264
20
52.479281551757694
10
-33.46231110183264
20
52.479281551757694
10
-33.46231110183264
20
49.47928155175768
10
-36.462311101832633
20
49.47928155175768
10
-36.462311101832633
20
48.22928155175768
10
-38.862311101832631
20
48.229281551757651
10
-38.862311101832631
20
49.47928155175768
10
-41.462311101832654
20
49.47928155175768
10
-41.4623111018442
20
27.479281551757616
10
-45.462311101844186
20
27.479281551757616
10
-45.462311101844186
20
2.4792815517577615
10
-41.4623111018442
20
2.4792815517577615
10
-41.462311101832654
20
-5.7707184482423557
10
-38.862311101832631
20
-5.7707184482423557
10
-38.862311101832631
20
-4.5207184482423557
10
-36.46231110183264
20
-4.5207184482423557
10
-36.46231110183264
20
-5.7707184482423557
10
-33.46231110183264
20
-5.7707184482423557
10
-33.46231110183264
20
-8.7707184482423628
10
-36.46231110183264
20
-8.7707184482423628
10
-36.46231110183264
20
-10.020718448242363
10
-38.862311101832631
20
-10.020718448242363
10
-38.862311101832631
20
-8.7707184482423628
10
-41.462311101832654
20
-8.7707184482423628
10
-41.4623111018442
20
-21.020718448242238
10
-23.731155550916299
20
-21.020718448235538
10
-23.731155550916299
20
-17.020718448235538
10
6.2688444490837014
20
-17.020718448235538
10
6.2688444490837014
20
-21.020718448235538
10
75
20
-21.020718448235538
10
75
20
-17.020718448235538
10
98.499999999988844
20
-17.02071844825544
10
98.499999999989441
20
-14.420718448256283
10
97.249999999989441
20
-14.420718448255993
10
97.249999999989996
20
-12.020718448255991
10
98.499999999989996
20
-12.020718448256281
10
98.499999999990692
20
-9.0207184482562681
10
101.49999999999069
20
-9.0207184482569787
10
101.49999999999
20
-12.020718448256982
10
102.74999999999
20
-12.02071844825727
10
102.74999999998946
20
-14.420718448257272
0
CIRCLE
5
132
100
AcDbEntity
8
0
100
AcDbCircle
10
198.70000000000925
20
4.9792815517581088
30
0
40
1.4999999999999858
210
-4.5082903407156897e-130
220
-3.7982270983039195e-65
230
1
0
CIRCLE
5
133
100
AcDbEntity
8
0
100
AcDbCircle
10
1.3000000000000547
20
96.979281551757708
30
0
40
1.5000000000000033
210
-4.5082903407156881e-130
220
5.9409111446723685e-211
230
1
0
CIRCLE
5
134
100
AcDbEntity
8
0
100
AcDbCircle
10
27.699999999999516
20
4.9792815517580955
30
0
40
1.5000000000000036
210
-4.5082903407156889e-130
220
5.9409111446723694e-211
230
1
0
CIRCLE
5
135
100
AcDbEntity
8
0
100
AcDbCircle
10
37.299999999999855
20
50.979281551757687
30
0
40
1.4999999999999991
210
-4.5082903407156889e-130
220
5.9409111446723694e-211
230
1
0
CIRCLE
5
136
100
AcDbEntity
8
0
100
AcDbCircle
10
181.90000000000947
20
50.979281551757687
30
0
40
1.4999999999999858
210
-4.5082903407156897e-130
220
-3.7982270983039195e-65
230
1
0
CIRCLE
5
137
100
AcDbEntity
8
0
100
AcDbCircle
10
172.30000000000933
20
96.97928155175768
30
0
40
1.4999999999999858
210
-4.5082903407156897e-130
220
-3.7982270983039195e-65
230
1
0
CIRCLE
5
138
100
AcDbEntity
8
0
100
AcDbCircle
10
172.30000000000979
20
4.9792815517580955
30
0
40
1.4999999999999858
210
-4.5082903407156897e-130
220
-3.7982270983039195e-65
230
1
0
CIRCLE
5
139
100
AcDbEntity
8
0
100
AcDbCircle
10
27.699999999999957
20
96.97928155175768
30
0
40
1.5000000000000036
210
-4.5082903407156889e-130
220
5.9409111446723694e-211
230
1
0
CIRCLE
5
140
100
AcDbEntity
8
0
100
AcDbCircle
10
1.3000000000000622
20
4.9792815517581088
30
0
40
1.5000000000000002
210
-6.8422776578360209e-49
220
-3.7982270983039195e-65
230
1
0
CIRCLE
5
141
100
AcDbEntity
8
0
100
AcDbCircle
10
18.099999999999852
20
50.979281551757687
30
0
40
1.5000000000000013
210
-4.5082903407156881e-130
220
5.9409111446723685e-211
230
1
0
CIRCLE
5
142
100
AcDbEntity
8
0
100
AcDbCircle
10
162.70000000000945
20
50.979281551757687
30
0
40
1.4999999999999858
210
-4.5082903407156897e-130
220
-3.7982270983039195e-65
230
1
0
CIRCLE
5
143
100
AcDbEntity
8
0
100
AcDbCircle
10
198.70000000000925
20
96.979281551757708
30
0
40
1.5000000000000213
210
-4.5082903407156881e-130
220
5.9409111446723685e-211
230
1
0
ENDSEC
0
SECTION
2
OBJECTS
0
DICTIONARY
5
C
100
AcDbDictionary
3
ACAD_GROUP
350
D
3
ACAD_MLINESTYLE
350
17
0
DICTIONARY
5
D
100
AcDbDictionary
0
DICTIONARY
5
1A
330
C
100
AcDbDictionary
0
DICTIONARY
5
17
100
AcDbDictionary
0
ENDSEC
0
EOF
