0
SECTION
2
HEADER
9
$INSUNITS
70
4
9
$ACADVER
1
AC1014
9
$HANDSEED
5
FFFF
0
ENDSEC
0
SECTION
2
TABLES
0
TABLE
2
VPORT
5
8
100
AcDbSymbolTable
0
ENDTAB
0
TABLE
2
LTYPE
5
5
100
AcDbSymbolTable
0
LTYPE
5
14
100
AcDbSymbolTableRecord
100
AcDbLinetypeTableRecord
2
BYBLOCK
70
0
0
LTYPE
5
15
100
AcDbSymbolTableRecord
100
AcDbLinetypeTableRecord
2
BYLAYER
70
0
0
LTYPE
5
16
100
AcDbSymbolTableRecord
100
AcDbLinetypeTableRecord
2
DASHED
70
0
3
Dashed __ __ __ __ __ __ __ __ __ __ __ __ __ _
72
65
73
2
40
0.75
49
0.5
74
0
49
-0.25
74
0
0
ENDTAB
0
TABLE
2
LAYER
5
2
100
AcDbSymbolTable
70
2
0
LAYER
5
50
100
AcDbSymbolTableRecord
100
AcDbLayerTableRecord
2
0
70
0
62
7
6
CONTINUOUS
0
ENDTAB
0
TABLE
2
STYLE
5
3
100
AcDbSymbolTable
70
1
0
STYLE
5
11
100
AcDbSymbolTableRecord
100
AcDbTextStyleTableRecord
2
STANDARD
70
0
0
ENDTAB
0
TABLE
2
VIEW
5
6
100
AcDbSymbolTable
70
0
0
ENDTAB
0
TABLE
2
UCS
5
7
100
AcDbSymbolTable
70
0
0
ENDTAB
0
TABLE
2
APPID
5
9
100
AcDbSymbolTable
70
2
0
APPID
5
12
100
AcDbSymbolTableRecord
100
AcDbRegAppTableRecord
2
ACAD
70
0
0
ENDTAB
0
TABLE
2
DIMSTYLE
5
A
100
AcDbSymbolTable
70
1
0
ENDTAB
0
TABLE
2
BLOCK_RECORD
5
1
100
AcDbSymbolTable
70
1
0
BLOCK_RECORD
5
1F
100
AcDbSymbolTableRecord
100
AcDbBlockTableRecord
2
*MODEL_SPACE
0
BLOCK_RECORD
5
1B
100
AcDbSymbolTableRecord
100
AcDbBlockTableRecord
2
*PAPER_SPACE
0
ENDTAB
0
ENDSEC
0
SECTION
2
BLOCKS
0
BLOCK
5
20
100
AcDbEntity
100
AcDbBlockBegin
2
*MODEL_SPACE
0
ENDBLK
5
21
100
AcDbEntity
100
AcDbBlockEnd
0
BLOCK
5
1C
100
AcDbEntity
100
AcDbBlockBegin
2
*PAPER_SPACE
0
ENDBLK
5
1D
100
AcDbEntity
100
AcDbBlockEnd
0
ENDSEC
0
SECTION
2
ENTITIES
0
LWPOLYLINE
5
100
100
AcDbEntity
8
0
100
AcDbPolyline
90
60
70
1
43
0.0
10
-224.73115555092096
20
-14.420718448242354
10
-224.73115555092096
20
-17.020718448242345
10
-218.7311555509163
20
-17.020718448235538
10
-218.7311555509163
20
-21.020718448235538
10
-175.30000000000459
20
-21.020718448238984
10
-175.29999999999995
20
30.979281551757651
10
-179.29999999999993
20
30.979281551757651
10
-179.2999999999999
20
70.979281551757666
10
-175.2999999999999
20
70.979281551757666
10
-175.30000000000453
20
122.97928155177681
10
-218.7311555509163
20
122.97928155179545
10
-218.7311555509163
20
118.97928155179544
10
-224.73115555092096
20
118.97928155176615
10
-224.73115555092096
20
116.37928155175769
10
-223.48115555091513
20
116.37928155175769
10
-223.48115555091513
20
113.97928155175768
10
-224.73115555092096
20
113.97928155175768
10
-224.73115555092096
20
110.97928155175768
10
-227.73115555092096
20
110.97928155175768
10
-227.73115555092096
20
113.97928155175768
10
-228.98115555091516
20
113.97928155175768
10
-228.98115555091516
20
116.37928155175769
10
-227.73115555092096
20
116.37928155175769
10
-227.73115555092096
20
118.97928155176658
10
-233.7311555509163
20
118.97928155180183
10
-233.7311555509163
20
122.97928155180185
10
-241.46231110184414
20
122.97928155175781
10
-241.46231110184416
20
99.479281551757822
10
-245.46231110184414
20
99.479281551757822
10
-245.46231110184414
20
74.479281551757808
10
-241.46231110184416
20
74.479281551757808
10
-241.46231110183265
20
52.479281551757623
10
-238.86231110182246
20
52.47928155175763
10
-238.86231110182246
20
53.729281551758618
10
-236.46231110182245
20
53.729281551758618
10
-236.46231110182245
20
52.47928155175763
10
-233.46231110182245
20
52.47928155175763
10
-233.46231110182245
20
49.479281551757623
10
-236.46231110182245
20
49.479281551757623
10
-236.46231110182245
20
48.229281551756607
10
-238.86231110182246
20
48.229281551756614
10
-238.86231110182246
20
49.479281551757623
10
-241.46231110183265
20
49.479281551757609
10
-241.46231110184419
20
27.479281551757765
10
-245.46231110184419
20
27.479281551757765
10
-245.46231110184419
20
2.479281551757766
10
-241.46231110184419
20
2.479281551757766
10
-241.46231110184419
20
-21.020718448242238
10
-233.7311555509163
20
-21.020718448235538
10
-233.7311555509163
20
-17.020718448235538
10
-227.73115555092096
20
-17.020718448242345
10
-227.73115555092096
20
-14.420718448242354
10
-228.98115555091516
20
-14.420718448242354
10
-228.98115555091516
20
-12.020718448242354
10
-227.73115555092096
20
-12.020718448242354
10
-227.73115555092096
20
-9.0207184482423521
10
-224.73115555092096
20
-9.0207184482423521
10
-224.73115555092096
20
-12.020718448242354
10
-223.48115555091513
20
-12.020718448242354
10
-223.48115555091513
20
-14.420718448242354
0
LWPOLYLINE
5
101
100
AcDbEntity
8
0
100
AcDbPolyline
90
8
70
1
43
0.0
10
-181.29999999999995
20
68.479281551757666
10
-181.29999999999993
20
33.479281551757666
42
-0.41421356237309503
10
-183.79999999999993
20
30.979281551757666
10
-197.20000000000002
20
30.979281551757659
42
-0.41421356237309503
10
-199.70000000000002
20
33.479281551757659
10
-199.70000000000002
20
68.479281551757666
42
-0.41421356237309503
10
-197.20000000000002
20
70.979281551757666
10
-183.79999999999993
20
70.979281551757637
42
-0.41421356237309503
0
LWPOLYLINE
5
102
100
AcDbEntity
8
0
100
AcDbPolyline
90
8
70
1
43
0.0
10
-181.80000000000001
20
76.779281551757578
10
-199.20000000000002
20
76.779281551757606
42
-0.41421356237309503
10
-201.70000000000002
20
79.279281551757606
10
-201.70000000000002
20
114.67928155175758
42
-0.41421356237309503
10
-199.20000000000002
20
117.17928155175758
10
-181.80000000000001
20
117.17928155175758
42
-0.41421356237309503
10
-179.30000000000001
20
114.67928155175758
10
-179.30000000000001
20
79.279281551757606
42
-0.41421356237309503
0
LWPOLYLINE
5
103
100
AcDbEntity
8
0
100
AcDbPolyline
90
8
70
1
43
0.0
10
-179.30000000000001
20
22.479281551757548
10
-179.30000000000001
20
-12.520718448241306
42
-0.41421356237307838
10
-181.79999999999984
20
-15.020718448241306
10
-199.19999999999987
20
-15.020718448242281
42
-0.41421356237311169
10
-201.70000000000002
20
-12.520718448242281
10
-201.70000000000002
20
22.479281551757524
42
-0.41421356237309503
10
-199.20000000000002
20
24.979281551757524
10
-181.80000000000001
20
24.979281551757548
42
-0.41421356237309503
0
LWPOLYLINE
5
104
100
AcDbEntity
8
0
100
AcDbPolyline
90
4
70
1
43
0.0
10
-205.69999999999999
20
70.97928155175768
10
-201.70000000000002
20
70.97928155175768
10
-201.70000000000002
20
30.979281551757669
10
-205.69999999999999
20
30.979281551757669
0
CIRCLE
5
105
100
AcDbEntity
8
0
100
AcDbCircle
10
-221.30000000000456
20
3.141592653591986
30
0
40
5
210
0
220
0
230
1
0
CIRCLE
5
106
100
AcDbEntity
8
0
100
AcDbCircle
10
-221.30000000000456
20
70.354281551771521
30
0
40
5
210
0
220
0
230
1
0
ENDSEC
0
SECTION
2
OBJECTS
0
DICTIONARY
5
C
100
AcDbDictionary
3
ACAD_GROUP
350
D
3
ACAD_MLINESTYLE
350
17
0
DICTIONARY
5
D
100
AcDbDictionary
0
DICTIONARY
5
1A
330
C
100
AcDbDictionary
0
DICTIONARY
5
17
100
AcDbDictionary
0
ENDSEC
0
EOF
