0
SECTION
2
HEADER
9
$INSUNITS
70
4
9
$ACADVER
1
AC1014
9
$HANDSEED
5
FFFF
0
ENDSEC
0
SECTION
2
TABLES
0
TABLE
2
VPORT
5
8
100
AcDbSymbolTable
0
ENDTAB
0
TABLE
2
LTYPE
5
5
100
AcDbSymbolTable
0
LTYPE
5
14
100
AcDbSymbolTableRecord
100
AcDbLinetypeTableRecord
2
BYBLOCK
70
0
0
LTYPE
5
15
100
AcDbSymbolTableRecord
100
AcDbLinetypeTableRecord
2
BYLAYER
70
0
0
LTYPE
5
16
100
AcDbSymbolTableRecord
100
AcDbLinetypeTableRecord
2
DASHED
70
0
3
Dashed __ __ __ __ __ __ __ __ __ __ __ __ __ _
72
65
73
2
40
0.75
49
0.5
74
0
49
-0.25
74
0
0
ENDTAB
0
TABLE
2
LAYER
5
2
100
AcDbSymbolTable
70
2
0
LAYER
5
50
100
AcDbSymbolTableRecord
100
AcDbLayerTableRecord
2
0
70
0
62
7
6
CONTINUOUS
0
ENDTAB
0
TABLE
2
STYLE
5
3
100
AcDbSymbolTable
70
1
0
STYLE
5
11
100
AcDbSymbolTableRecord
100
AcDbTextStyleTableRecord
2
STANDARD
70
0
0
ENDTAB
0
TABLE
2
VIEW
5
6
100
AcDbSymbolTable
70
0
0
ENDTAB
0
TABLE
2
UCS
5
7
100
AcDbSymbolTable
70
0
0
ENDTAB
0
TABLE
2
APPID
5
9
100
AcDbSymbolTable
70
2
0
APPID
5
12
100
AcDbSymbolTableRecord
100
AcDbRegAppTableRecord
2
ACAD
70
0
0
ENDTAB
0
TABLE
2
DIMSTYLE
5
A
100
AcDbSymbolTable
70
1
0
ENDTAB
0
TABLE
2
BLOCK_RECORD
5
1
100
AcDbSymbolTable
70
1
0
BLOCK_RECORD
5
1F
100
AcDbSymbolTableRecord
100
AcDbBlockTableRecord
2
*MODEL_SPACE
0
BLOCK_RECORD
5
1B
100
AcDbSymbolTableRecord
100
AcDbBlockTableRecord
2
*PAPER_SPACE
0
ENDTAB
0
ENDSEC
0
SECTION
2
BLOCKS
0
BLOCK
5
20
100
AcDbEntity
100
AcDbBlockBegin
2
*MODEL_SPACE
0
ENDBLK
5
21
100
AcDbEntity
100
AcDbBlockEnd
0
BLOCK
5
1C
100
AcDbEntity
100
AcDbBlockBegin
2
*PAPER_SPACE
0
ENDBLK
5
1D
100
AcDbEntity
100
AcDbBlockEnd
0
ENDSEC
0
SECTION
2
ENTITIES
0
CIRCLE
5
100
100
AcDbEntity
8
0
100
AcDbCircle
10
-221.30000000000462
20
70.354281551771521
30
0
40
5
210
0
220
0
230
1
0
CIRCLE
5
101
100
AcDbEntity
8
0
100
AcDbCircle
10
-221.30000000000462
20
3.141592653591986
30
0
40
5
210
0
220
0
230
1
0
LWPOLYLINE
5
102
100
AcDbEntity
8
0
100
AcDbPolyline
90
4
70
1
43
0.0
10
-201.70000000000002
20
30.979281551757655
10
-205.69999999999999
20
30.979281551757655
10
-205.69999999999999
20
70.979281551757666
10
-201.70000000000002
20
70.97928155175768
0
LWPOLYLINE
5
103
100
AcDbEntity
8
0
100
AcDbPolyline
90
72
70
1
43
0.0
10
-241.46231110183265
20
52.479281551757623
10
-238.86231110182246
20
52.47928155175763
10
-238.86231110182246
20
53.729281551758618
10
-236.46231110182245
20
53.729281551758618
10
-236.46231110182245
20
52.47928155175763
10
-233.46231110182245
20
52.47928155175763
10
-233.46231110182245
20
49.479281551757623
10
-236.46231110182245
20
49.479281551757623
10
-236.46231110182245
20
48.229281551756607
10
-238.86231110182246
20
48.229281551756614
10
-238.86231110182246
20
49.479281551757623
10
-241.46231110183265
20
49.479281551757609
10
-241.46231110184419
20
27.479281551757772
10
-245.46231110184419
20
27.479281551757772
10
-245.46231110184419
20
2.4792815517577527
10
-241.46231110184419
20
2.4792815517577527
10
-241.46231110183265
20
-5.7707184482423557
10
-238.86231110182251
20
-5.7707184482423557
10
-238.86231110182251
20
-4.5207184482423699
10
-236.46231110182254
20
-4.5207184482423699
10
-236.46231110182254
20
-5.7707184482423557
10
-233.46231110182254
20
-5.7707184482423557
10
-233.46231110182254
20
-8.7707184482423557
10
-236.46231110182254
20
-8.7707184482423557
10
-236.46231110182254
20
-10.020718448242354
10
-238.86231110182251
20
-10.020718448242356
10
-238.86231110182251
20
-8.7707184482423557
10
-241.46231110183265
20
-8.7707184482423557
10
-241.46231110184419
20
-21.020718448242238
10
-223.7311555509163
20
-21.020718448235538
10
-223.7311555509163
20
-17.020718448235538
10
-193.73115555091633
20
-17.020718448235538
10
-193.73115555091633
20
-21.020718448235538
10
-175.30000000000462
20
-21.020718448238984
10
-175.29999999999995
20
30.979281551757644
10
-179.29999999999993
20
30.979281551757648
10
-179.29999999999993
20
49.479281551757651
10
-181.89999999999995
20
49.479281551757651
10
-181.89999999999995
20
48.229281551756642
10
-184.29999999999993
20
48.229281551756635
10
-184.29999999999993
20
49.479281551757651
10
-187.29999999999993
20
49.479281551757651
10
-187.29999999999993
20
52.479281551757651
10
-184.29999999999993
20
52.479281551757651
10
-184.29999999999993
20
53.729281551758639
10
-181.89999999999995
20
53.729281551758639
10
-181.89999999999995
20
52.479281551757651
10
-179.2999999999999
20
52.479281551757651
10
-179.2999999999999
20
70.979281551757666
10
-175.2999999999999
20
70.979281551757666
10
-175.30000000000456
20
122.97928155177681
10
-193.73115555091633
20
122.97928155178479
10
-193.73115555091633
20
118.97928155178478
10
-223.7311555509163
20
118.97928155179757
10
-223.7311555509163
20
122.97928155179758
10
-241.46231110184414
20
122.97928155175781
10
-241.46231110183265
20
110.72928155175767
10
-238.86231110182251
20
110.72928155175767
10
-238.86231110182251
20
111.97928155175767
10
-236.46231110182254
20
111.97928155175767
10
-236.46231110182254
20
110.72928155175767
10
-233.46231110182254
20
110.72928155175767
10
-233.46231110182254
20
107.72928155175768
10
-236.46231110182254
20
107.72928155175768
10
-236.46231110182254
20
106.47928155175769
10
-238.86231110182251
20
106.47928155175769
10
-238.86231110182251
20
107.72928155175768
10
-241.46231110183265
20
107.72928155175768
10
-241.46231110184416
20
99.47928155175785
10
-245.46231110184414
20
99.47928155175785
10
-245.46231110184414
20
74.479281551757765
10
-241.46231110184416
20
74.479281551757765
0
ENDSEC
0
SECTION
2
OBJECTS
0
DICTIONARY
5
C
100
AcDbDictionary
3
ACAD_GROUP
350
D
3
ACAD_MLINESTYLE
350
17
0
DICTIONARY
5
D
100
AcDbDictionary
0
DICTIONARY
5
1A
330
C
100
AcDbDictionary
0
DICTIONARY
5
17
100
AcDbDictionary
0
ENDSEC
0
EOF
