0
SECTION
2
HEADER
9
$INSUNITS
70
4
9
$ACADVER
1
AC1014
9
$HANDSEED
5
FFFF
0
ENDSEC
0
SECTION
2
TABLES
0
TABLE
2
VPORT
5
8
100
AcDbSymbolTable
0
ENDTAB
0
TABLE
2
LTYPE
5
5
100
AcDbSymbolTable
0
LTYPE
5
14
100
AcDbSymbolTableRecord
100
AcDbLinetypeTableRecord
2
BYBLOCK
70
0
0
LTYPE
5
15
100
AcDbSymbolTableRecord
100
AcDbLinetypeTableRecord
2
BYLAYER
70
0
0
LTYPE
5
16
100
AcDbSymbolTableRecord
100
AcDbLinetypeTableRecord
2
DASHED
70
0
3
Dashed __ __ __ __ __ __ __ __ __ __ __ __ __ _
72
65
73
2
40
0.75
49
0.5
74
0
49
-0.25
74
0
0
ENDTAB
0
TABLE
2
LAYER
5
2
100
AcDbSymbolTable
70
2
0
LAYER
5
50
100
AcDbSymbolTableRecord
100
AcDbLayerTableRecord
2
0
70
0
62
7
6
CONTINUOUS
0
ENDTAB
0
TABLE
2
STYLE
5
3
100
AcDbSymbolTable
70
1
0
STYLE
5
11
100
AcDbSymbolTableRecord
100
AcDbTextStyleTableRecord
2
STANDARD
70
0
0
ENDTAB
0
TABLE
2
VIEW
5
6
100
AcDbSymbolTable
70
0
0
ENDTAB
0
TABLE
2
UCS
5
7
100
AcDbSymbolTable
70
0
0
ENDTAB
0
TABLE
2
APPID
5
9
100
AcDbSymbolTable
70
2
0
APPID
5
12
100
AcDbSymbolTableRecord
100
AcDbRegAppTableRecord
2
ACAD
70
0
0
ENDTAB
0
TABLE
2
DIMSTYLE
5
A
100
AcDbSymbolTable
70
1
0
ENDTAB
0
TABLE
2
BLOCK_RECORD
5
1
100
AcDbSymbolTable
70
1
0
BLOCK_RECORD
5
1F
100
AcDbSymbolTableRecord
100
AcDbBlockTableRecord
2
*MODEL_SPACE
0
BLOCK_RECORD
5
1B
100
AcDbSymbolTableRecord
100
AcDbBlockTableRecord
2
*PAPER_SPACE
0
ENDTAB
0
ENDSEC
0
SECTION
2
BLOCKS
0
BLOCK
5
20
100
AcDbEntity
100
AcDbBlockBegin
2
*MODEL_SPACE
0
ENDBLK
5
21
100
AcDbEntity
100
AcDbBlockEnd
0
BLOCK
5
1C
100
AcDbEntity
100
AcDbBlockBegin
2
*PAPER_SPACE
0
ENDBLK
5
1D
100
AcDbEntity
100
AcDbBlockEnd
0
ENDSEC
0
SECTION
2
ENTITIES
0
LWPOLYLINE
5
100
100
AcDbEntity
8
0
100
AcDbPolyline
90
4
70
1
43
0.0
10
-88.729281551975063
20
0.50000000000003642
42
0.99999999999999989
10
-81.229281551975063
20
0.50000000000004485
10
-81.229281551975063
20
15.500000000000032
42
0.99999999999999989
10
-88.729281551975063
20
15.500000000000039
0
LWPOLYLINE
5
101
100
AcDbEntity
8
0
100
AcDbPolyline
90
4
70
1
43
0.0
10
-101.22928155197506
20
0.50000000000003642
42
0.99999999999999989
10
-93.729281551975063
20
0.50000000000004041
10
-93.729281551975063
20
15.500000000000032
42
0.99999999999999989
10
-101.22928155197506
20
15.500000000000039
0
LWPOLYLINE
5
102
100
AcDbEntity
8
0
100
AcDbPolyline
90
4
70
1
43
0.0
10
-76.229281551975063
20
0.50000000000003753
42
0.99999999999999989
10
-68.729281551975077
20
0.50000000000002487
10
-68.729281551975063
20
15.500000000000032
42
0.99999999999999989
10
-76.229281551975063
20
15.500000000000039
0
LWPOLYLINE
5
103
100
AcDbEntity
8
0
100
AcDbPolyline
90
4
70
1
43
0.0
10
-106.22928155197506
20
15.500000000000027
10
-106.22928155197506
20
0.50000000000003064
42
-0.99999999999999989
10
-113.72928155197506
20
0.5000000000000373
10
-113.72928155197506
20
15.50000000000005
42
-0.99999999999999989
0
LWPOLYLINE
5
104
100
AcDbEntity
8
0
100
AcDbPolyline
90
4
70
1
43
0.0
10
-63.729281551975056
20
0.50000000000003753
42
0.99999999999999989
10
-56.22928155197507
20
0.50000000000004263
10
-56.229281551975049
20
15.500000000000034
42
0.99999999999999989
10
-63.729281551975063
20
15.500000000000039
0
LWPOLYLINE
5
105
100
AcDbEntity
8
0
100
AcDbPolyline
90
4
70
1
43
0.0
10
-20.729281551759126
20
0.5000000000000332
42
0.99999999999999989
10
-13.22928155175914
20
0.50000000000003597
10
-13.229281551759138
20
15.500000000000039
42
0.99999999999999989
10
-20.729281551759129
20
15.500000000000032
0
LWPOLYLINE
5
106
100
AcDbEntity
8
0
100
AcDbPolyline
90
4
70
1
43
0.0
10
-8.2292815517591293
20
0.5000000000000332
42
0.99999999999999989
10
-0.72928155175913556
20
0.50000000000003819
10
-0.72928155175914
20
15.500000000000039
42
0.99999999999999989
10
-8.2292815517591364
20
15.500000000000032
0
LWPOLYLINE
5
107
100
AcDbEntity
8
0
100
AcDbPolyline
90
4
70
1
43
0.0
10
-33.229281551759122
20
0.50000000000003708
42
0.99999999999999989
10
-25.72928155175914
20
0.50000000000003375
10
-25.72928155175914
20
15.500000000000039
42
0.99999999999999989
10
-33.229281551759136
20
15.500000000000034
0
LWPOLYLINE
5
108
100
AcDbEntity
8
0
100
AcDbPolyline
90
4
70
1
43
0.0
10
4.2707184482408653
20
0.5000000000000312
10
4.27071844824086
20
15.500000000000027
42
-0.99999999999999989
10
11.77071844824086
20
15.500000000000044
10
11.770718448240869
20
0.50000000000003852
42
-0.99999999999999989
0
LWPOLYLINE
5
109
100
AcDbEntity
8
0
100
AcDbPolyline
90
4
70
1
43
0.0
10
-45.729281551759129
20
0.50000000000003708
42
0.99999999999999989
10
-38.229281551759151
20
0.50000000000004263
10
-38.229281551759144
20
15.500000000000039
42
0.99999999999999989
10
-45.729281551759144
20
15.500000000000034
0
LWPOLYLINE
5
110
100
AcDbEntity
8
0
100
AcDbPolyline
90
52
70
1
43
0.0
10
-118.97928155180819
20
15.500000000000039
10
-122.97928155180819
20
15.500000000000034
10
-122.97928155180819
20
0.50000000000003375
10
-118.97928155180819
20
0.50000000000003375
10
-118.97928155180819
20
-26.499999999999972
10
-122.97928155180819
20
-26.499999999999972
10
-122.97928155180819
20
-41.499999999999972
10
-118.97928155180819
20
-41.499999999999972
10
-118.97928155180819
20
-56.499999999999972
10
-122.97928155180819
20
-56.499999999999972
10
-122.97928155177188
20
-60.499999999999972
10
-99.479281551759129
20
-60.500000000000099
10
-99.479281551759129
20
-56.500000000000092
10
-74.479281551759257
20
-56.500000000000021
10
-74.479281551759243
20
-60.500000000000028
10
-27.479281551758952
20
-60.499999999999972
10
-27.479281551758948
20
-56.499999999999972
10
-2.4792815517590938
20
-56.499999999999972
10
-2.4792815517590929
20
-60.499999999999972
10
21.02071844823584
20
-60.499999999999972
10
21.020718448234206
20
-56.499999999999972
10
17.020718448234206
20
-56.499999999999972
10
17.020718448234206
20
-41.499999999999972
10
21.020718448234206
20
-41.499999999999972
10
21.020718448234206
20
-26.499999999999972
10
17.020718448234206
20
-26.499999999999972
10
17.020718448234206
20
0.50000000000003375
10
21.020718448234206
20
0.50000000000003386
10
21.020718448234206
20
15.500000000000034
10
17.020718448234206
20
15.500000000000034
10
17.020718448234206
20
36.500000000000028
10
21.020718448234206
20
36.500000000000028
10
21.020718448234206
20
51.500000000000028
10
17.020718448234206
20
51.500000000000028
10
17.020718448234206
20
60.500000000000028
10
21.020718448234206
20
60.500000000000028
10
21.02071844823584
20
64.500000000000028
10
-2.4792815517590849
20
64.500000000000028
10
-2.4792815517590858
20
60.500000000000028
10
-27.479281551759126
20
60.500000000000028
10
-27.479281551759101
20
64.500000000000028
10
-74.479281551759101
20
64.500000000000028
10
-74.479281551759101
20
60.500000000000028
10
-99.479281551759186
20
60.500000000000028
10
-99.479281551759172
20
64.500000000000028
10
-122.97928155177188
20
64.500000000000028
10
-122.97928155180819
20
60.500000000000028
10
-118.97928155180819
20
60.500000000000028
10
-118.97928155180819
20
51.500000000000043
10
-122.97928155180819
20
51.500000000000028
10
-122.97928155180819
20
36.500000000000028
10
-118.97928155180819
20
36.500000000000036
0
LWPOLYLINE
5
111
100
AcDbEntity
8
0
100
AcDbPolyline
90
4
70
1
43
0.0
10
-4.9792815517590707
20
34.000000000000028
42
0.99999999999999989
10
-4.9792815517590938
20
54.000000000000028
10
-96.979281551758945
20
54.000000000000028
42
0.99999999999999989
10
-96.979281551758959
20
34.000000000000028
0
LWPOLYLINE
5
112
100
AcDbEntity
8
0
100
AcDbPolyline
90
4
70
1
43
0.0
10
-4.9792815517593416
20
-46.499999999999972
42
0.99999999999999989
10
-4.9792815517593247
20
-21.499999999999968
10
-96.979281551759229
20
-21.499999999999979
42
0.99999999999999989
10
-96.979281551759229
20
-46.499999999999972
0
CIRCLE
5
113
100
AcDbEntity
8
0
100
AcDbCircle
10
19.020718448240931
20
8.0000000000000426
30
0
40
1.4999999999999947
210
0
220
-0
230
1
0
CIRCLE
5
114
100
AcDbEntity
8
0
100
AcDbCircle
10
7.2707184482409071
20
-58.499999999999979
30
0
40
1.5000000000000002
210
7.8886090522101181e-31
220
-0
230
1
0
CIRCLE
5
115
100
AcDbEntity
8
0
100
AcDbCircle
10
-50.979281551759115
20
62.500000000000028
30
0
40
1.5000000000000036
210
0
220
-0
230
1
0
CIRCLE
5
116
100
AcDbEntity
8
0
100
AcDbCircle
10
-109.22928155175916
20
62.500000000000043
30
0
40
1.5000000000000036
210
0
220
-0
230
1
0
CIRCLE
5
117
100
AcDbEntity
8
0
100
AcDbCircle
10
-120.97928155175914
20
44.000000000000043
30
0
40
1.5000000000000036
210
0
220
-0
230
1
0
CIRCLE
5
118
100
AcDbEntity
8
0
100
AcDbCircle
10
-50.979281551759129
20
-9.4999999999999645
30
0
40
1.5000000000000036
210
0
220
-0
230
1
0
CIRCLE
5
119
100
AcDbEntity
8
0
100
AcDbCircle
10
19.020718448240686
20
44.000000000000227
30
0
40
1.5000000000000058
210
7.8886090522101181e-31
220
-0
230
1
0
CIRCLE
5
120
100
AcDbEntity
8
0
100
AcDbCircle
10
-50.979281551759151
20
-58.499999999999986
30
0
40
1.5000000000000036
210
0
220
-0
230
1
0
CIRCLE
5
121
100
AcDbEntity
8
0
100
AcDbCircle
10
7.2707184482409026
20
62.500000000000028
30
0
40
1.5000000000000002
210
7.8886090522101181e-31
220
-0
230
1
0
CIRCLE
5
122
100
AcDbEntity
8
0
100
AcDbCircle
10
-109.22928155175916
20
-58.499999999999986
30
0
40
1.5000000000000036
210
0
220
-0
230
1
0
CIRCLE
5
123
100
AcDbEntity
8
0
100
AcDbCircle
10
-120.97928155175913
20
8.0000000000000409
30
0
40
1.5000000000000036
210
0
220
-0
230
1
0
CIRCLE
5
124
100
AcDbEntity
8
0
100
AcDbCircle
10
-50.979281551759136
20
25.500000000000036
30
0
40
1.5000000000000036
210
0
220
-0
230
1
0
LWPOLYLINE
5
125
100
AcDbEntity
8
0
100
AcDbPolyline
90
4
70
1
43
0.0
10
-74.479281551759144
20
27.50000000000005
10
-74.479281551759129
20
23.500000000000043
10
-99.479281551759158
20
23.500000000000046
10
-99.479281551759158
20
27.500000000000057
0
LWPOLYLINE
5
126
100
AcDbEntity
8
0
100
AcDbPolyline
90
4
70
1
43
0.0
10
-2.4792815517591005
20
27.499999999999982
10
-2.4792815517591125
20
23.500000000000007
10
-27.479281551759126
20
23.500000000000021
10
-27.479281551759097
20
27.5
0
LWPOLYLINE
5
127
100
AcDbEntity
8
0
100
AcDbPolyline
90
4
70
1
43
0.0
10
-27.479281551759122
20
-11.499999999999948
10
-27.479281551759097
20
-7.4999999999999662
10
-2.4792815517590983
20
-7.4999999999999467
10
-2.479281551759112
20
-11.499999999999922
0
LWPOLYLINE
5
128
100
AcDbEntity
8
0
100
AcDbPolyline
90
4
70
1
43
0.0
10
-99.479281551759129
20
-11.499999999999984
10
-99.479281551759144
20
-7.4999999999999769
10
-74.479281551759087
20
-7.4999999999999689
10
-74.479281551759186
20
-11.499999999999977
0
ENDSEC
0
SECTION
2
OBJECTS
0
DICTIONARY
5
C
100
AcDbDictionary
3
ACAD_GROUP
350
D
3
ACAD_MLINESTYLE
350
17
0
DICTIONARY
5
D
100
AcDbDictionary
0
DICTIONARY
5
1A
330
C
100
AcDbDictionary
0
DICTIONARY
5
17
100
AcDbDictionary
0
ENDSEC
0
EOF
